<?xml version="1.0" standalone="no"?>
<!DOCTYPE svg PUBLIC "-//W3C//DTD SVG 20010904//EN"
 "http://www.w3.org/TR/2001/REC-SVG-20010904/DTD/svg10.dtd">
<svg version="1.0" xmlns="http://www.w3.org/2000/svg"
 width="1012.000000pt" height="1012.000000pt" viewBox="0 0 1012.000000 1012.000000"
 preserveAspectRatio="xMidYMid meet">

<g transform="translate(0.000000,1012.000000) scale(0.100000,-0.100000)"
fill="#000000" stroke="none">
<path d="M4535 10084 c-1035 -112 -2004 -536 -2793 -1222 -131 -114 -438 -419
-430 -427 4 -4 3625 -439 4038 -484 107 -12 207 -24 223 -27 17 -4 27 -1 27 6
0 7 17 49 38 94 29 60 57 101 110 156 39 41 72 77 72 80 0 3 -236 417 -524
920 l-523 915 -54 2 c-30 0 -112 -5 -184 -13z"/>
<path d="M5402 10091 c2 -5 160 -387 353 -850 l349 -840 116 6 c138 7 240 -14
360 -74 96 -48 230 -178 284 -275 20 -37 42 -65 49 -63 7 2 433 103 947 225
514 121 941 223 949 226 20 7 -240 268 -429 431 -786 680 -1760 1102 -2788
1207 -177 19 -195 19 -190 7z"/>
<path d="M8060 7824 c-602 -73 -1098 -134 -1102 -134 -5 0 -8 -10 -8 -22 -1
-55 -33 -170 -70 -247 l-41 -85 53 -52 c29 -28 755 -716 1612 -1529 1088
-1030 1561 -1473 1566 -1463 4 7 16 76 26 153 27 203 28 1003 1 1205 -108 816
-362 1511 -795 2177 -81 123 -89 133 -117 132 -16 -1 -523 -61 -1125 -135z"/>
<path d="M815 7791 c-402 -620 -669 -1351 -764 -2095 -56 -431 -54 -899 6
-1339 14 -106 20 -128 33 -124 19 5 2239 1309 2295 1348 47 33 2474 1459 2482
1459 4 0 173 98 375 217 358 210 369 217 362 242 -4 14 -12 49 -18 78 -6 28
-14 54 -17 58 -4 3 -163 14 -355 25 -350 20 -4308 230 -4325 230 -5 0 -39 -45
-74 -99z"/>
<path d="M4320 6305 c-789 -520 -1462 -965 -1496 -989 -102 -75 -2582 -1706
-2593 -1706 -16 0 -15 -5 44 -179 76 -225 142 -385 245 -596 382 -782 944
-1438 1664 -1942 131 -92 415 -268 421 -261 2 2 734 1472 1627 3268 l1624
3264 -36 31 c-19 17 -42 36 -50 42 -13 10 -262 -150 -1450 -932z"/>
<path d="M6555 7101 l-70 -36 516 -3210 c283 -1765 517 -3216 520 -3222 5 -15
252 132 431 257 907 631 1583 1537 1928 2584 38 115 41 132 29 151 -26 41
-3262 3515 -3273 3513 -6 0 -43 -17 -81 -37z"/>
<path d="M6081 7022 c-83 -179 -2932 -6655 -2929 -6657 8 -7 257 -97 368 -133
272 -88 602 -162 915 -204 157 -21 206 -23 635 -23 429 0 478 2 635 23 351 47
697 128 1011 236 231 80 234 81 234 114 -1 75 -727 6643 -736 6651 -5 5 -34
11 -65 15 -54 6 -56 5 -68 -22z"/>
</g>
</svg>
