<?xml version="1.0" standalone="no"?>
<!DOCTYPE svg PUBLIC "-//W3C//DTD SVG 20010904//EN"
 "http://www.w3.org/TR/2001/REC-SVG-20010904/DTD/svg10.dtd">
<svg version="1.0" xmlns="http://www.w3.org/2000/svg"
 width="1880.000000pt" height="940.000000pt" viewBox="0 0 1880.000000 940.000000"
 preserveAspectRatio="xMidYMid meet">

<g transform="translate(0.000000,940.000000) scale(0.100000,-0.100000)"
fill="#000000" stroke="none">
<path d="M0 4700 l0 -4700 4403 0 4402 0 1360 3678 c747 2022 1381 3737 1408
3810 39 105 53 132 68 132 11 0 19 -4 19 -9 0 -7 -2770 -7504 -2805 -7594 -7
-16 -3 -18 30 -15 l37 3 348 940 c1934 5235 2537 6863 2567 6935 39 96 86 183
135 251 41 58 98 122 103 117 2 -2 -10 -26 -27 -53 -47 -76 -151 -288 -192
-395 -20 -52 -677 -1827 -1460 -3945 l-1424 -3850 101 -3 c55 -1 102 -1 104 2
3 3 207 551 454 1218 844 2276 1187 3203 1338 3608 288 778 600 1618 726 1960
71 190 131 348 134 352 4 4 403 -139 886 -318 484 -179 1679 -620 2655 -981
976 -361 1778 -659 1782 -662 4 -4 -4 -42 -19 -86 -23 -69 -26 -98 -28 -215
l-1 -135 -251 -680 c-489 -1323 -1455 -3941 -1478 -4002 l-23 -63 107 0 106 0
825 2231 c454 1227 828 2236 832 2242 14 23 37 -24 26 -53 -5 -14 -374 -1010
-819 -2214 -446 -1204 -812 -2193 -815 -2198 -3 -4 12 -8 33 -8 l38 0 809
2191 c446 1205 813 2192 817 2195 43 26 -6 -113 -777 -2196 -442 -1196 -804
-2178 -804 -2182 0 -12 1732 -10 1750 2 9 5 19 5 26 -1 24 -20 70 11 65 43 0
5 4 7 11 5 6 -1 12 11 13 28 0 20 5 29 15 27 11 -3 11 0 0 12 -10 13 -10 16 3
16 9 0 19 5 23 12 5 8 2 9 -10 5 -12 -5 -16 -3 -13 5 2 7 10 12 18 11 10 -2
14 8 14 32 0 24 -5 35 -14 35 -8 0 -11 3 -8 7 4 3 2 12 -4 19 -7 9 -6 12 8 9
10 -1 17 -9 15 -16 -2 -8 0 -11 4 -7 4 4 13 3 20 -3 9 -7 12 -6 10 8 -2 10 2
21 8 25 7 5 4 8 -6 8 -24 0 -23 16 3 43 13 15 19 33 17 54 -2 22 5 40 21 59
16 19 20 29 12 37 -8 8 -11 7 -11 -2 0 -7 -4 -9 -10 -6 -5 3 -10 1 -10 -4 0
-6 -4 -11 -10 -11 -5 0 -10 4 -10 8 0 12 41 28 67 26 12 -1 20 3 17 8 -3 5
-12 7 -18 5 -15 -6 -40 8 -42 23 -1 5 -2 15 -3 21 0 5 -5 8 -10 4 -15 -9 -25
15 -12 28 9 9 10 7 5 -8 -4 -11 -4 -17 0 -13 5 4 19 3 32 -2 20 -8 29 -5 53
18 17 16 27 36 26 50 -1 13 5 27 14 33 14 9 14 10 -1 5 -12 -3 -18 0 -18 10 0
8 5 12 10 9 12 -8 40 12 40 27 0 6 -8 4 -17 -3 -11 -10 -14 -10 -9 -1 4 7 2
12 -4 12 -6 0 -8 5 -4 11 4 8 9 7 15 -2 7 -11 9 -11 9 1 0 13 1 13 10 0 16
-25 22 -4 8 30 -13 31 -15 32 -31 16 -15 -15 -17 -15 -17 -2 0 9 7 16 15 16 8
0 15 9 15 20 0 11 7 20 15 20 9 0 12 6 9 18 -5 13 -4 14 4 3 8 -11 12 -10 21
5 6 11 11 14 11 7 0 -6 -10 -20 -22 -30 -25 -20 -34 -43 -17 -43 5 0 8 -4 5
-8 -2 -4 0 -14 6 -22 8 -12 9 -12 4 2 -3 10 1 18 12 21 16 4 15 5 0 6 -23 1
-22 7 1 40 23 32 22 52 -3 80 -18 20 -18 20 13 11 19 -5 31 -5 31 1 0 5 -6 9
-13 9 -7 0 -17 10 -22 23 -6 12 -15 22 -22 22 -23 0 -21 11 2 13 13 1 27 -3
30 -9 5 -7 11 -6 20 1 15 12 30 -3 20 -20 -3 -5 -1 -10 4 -10 6 0 12 7 12 15
2 23 4 28 17 53 7 12 10 27 7 32 -3 6 -1 10 5 10 6 0 8 5 5 10 -9 14 -27 1
-21 -15 2 -7 -1 -16 -9 -19 -18 -7 -9 22 17 50 10 11 15 24 11 27 -6 6 11 11
30 8 4 0 7 4 7 10 0 6 -7 8 -16 5 -13 -5 -16 0 -12 28 3 27 1 33 -8 25 -7 -6
-10 -18 -7 -27 4 -13 3 -14 -6 -6 -9 8 -8 17 2 36 10 21 17 24 30 16 10 -5 15
-13 12 -19 -4 -5 -2 -9 4 -9 5 0 9 9 8 19 0 11 -5 17 -9 15 -4 -3 -8 2 -8 10
0 8 5 18 12 22 7 4 8 3 4 -4 -5 -8 -2 -10 8 -6 21 8 20 17 -4 32 -15 9 -26 10
-40 2 -23 -12 -27 -32 -5 -24 8 4 15 1 15 -7 0 -7 -3 -9 -7 -6 -3 4 -12 2 -20
-4 -10 -9 -13 -6 -13 15 0 14 3 26 8 26 4 1 23 14 42 31 31 27 33 31 18 40
-10 6 -18 17 -18 25 0 14 2 14 16 0 20 -21 23 -20 17 4 -3 11 -1 20 5 20 18 0
19 -23 1 -59 -12 -25 -14 -38 -6 -43 6 -4 15 -4 21 -1 5 3 6 1 2 -5 -4 -6 -14
-9 -24 -6 -15 5 -15 4 1 -6 13 -9 21 -8 33 4 11 11 12 16 3 16 -7 0 -9 3 -6 6
3 4 2 15 -3 24 -7 13 -6 20 5 23 10 4 12 1 9 -11 -5 -14 -4 -14 4 -3 7 10 7
21 1 33 -11 21 3 58 15 39 4 -6 2 -11 -3 -11 -6 0 -11 -5 -11 -11 0 -18 27 8
33 32 4 16 3 18 -9 8 -8 -6 -14 -8 -14 -5 0 4 -9 2 -21 -5 -16 -8 -24 -8 -33
2 -8 9 -7 11 5 6 17 -5 39 9 39 26 0 5 -6 7 -14 4 -8 -3 -17 0 -19 7 -6 15 29
10 39 -5 3 -5 15 -9 27 -9 22 1 22 1 -2 14 -18 10 -21 15 -10 20 8 3 2 4 -13
2 -15 -1 -25 1 -22 5 3 5 13 9 22 9 13 0 14 2 3 9 -11 7 -11 10 0 15 8 3 4 4
-9 2 -12 -2 -20 -1 -17 4 3 4 -2 13 -10 20 -11 9 -15 9 -15 1 0 -7 -5 -9 -11
-6 -12 8 -7 16 13 19 7 1 18 5 25 9 8 5 11 1 8 -14 -4 -18 -1 -20 21 -15 22 6
24 4 20 -18 -4 -20 -1 -23 16 -18 14 3 16 8 9 15 -14 14 -14 30 -1 22 20 -12
9 16 -15 40 -13 14 -20 25 -15 25 6 0 9 3 8 7 -4 13 22 53 34 53 7 0 6 -5 -2
-15 -9 -10 -9 -15 -1 -15 6 0 11 -5 11 -11 0 -6 -9 -8 -20 -4 -14 4 -20 2 -18
-7 4 -17 28 -26 51 -20 15 4 16 7 5 13 -11 7 -11 9 1 9 11 0 11 3 0 17 -12 14
-12 16 0 8 10 -6 12 -4 6 6 -17 27 -13 46 9 42 12 -2 5 3 -13 10 -23 9 -31 16
-23 21 7 4 9 12 6 18 -4 6 -10 5 -16 -3 -7 -10 -8 -9 -4 5 4 11 1 23 -6 28
-10 6 -8 8 5 8 9 0 17 -5 17 -10 0 -17 61 -7 74 12 7 10 16 15 21 10 5 -4 5
-1 1 6 -5 7 -14 11 -22 8 -11 -4 -11 0 -2 22 13 30 37 54 48 47 4 -3 10 4 13
15 3 12 1 18 -5 14 -6 -4 -8 -1 -6 7 3 8 13 13 23 11 11 -2 15 2 12 10 -2 7
-11 12 -20 12 -9 -1 -15 2 -12 6 3 5 1 11 -5 15 -10 6 11 35 26 35 5 0 3 -5
-4 -12 -17 -17 -15 -25 8 -31 16 -4 18 -2 10 13 -7 12 -6 21 3 28 16 13 23 87
7 77 -6 -3 -8 -10 -5 -15 3 -5 1 -11 -5 -15 -6 -4 -8 -11 -5 -16 9 -14 -11
-11 -22 4 -19 24 -23 46 -7 40 7 -3 14 -10 14 -17 0 -6 4 -5 9 3 6 9 4 23 -6
38 -14 21 -14 23 1 17 13 -5 15 -2 10 12 -4 11 -4 16 0 12 4 -3 8 -12 9 -20 3
-20 34 -61 40 -51 8 15 -1 46 -17 55 -9 5 -16 15 -16 23 0 9 -6 12 -17 9 -15
-5 -16 -4 -3 5 11 7 20 5 37 -11 19 -17 26 -19 36 -9 9 10 9 11 -3 6 -19 -7
-45 31 -28 41 7 4 8 3 4 -4 -4 -7 -2 -12 3 -12 6 0 11 12 11 28 0 15 -4 23 -8
17 -4 -5 -14 -11 -22 -13 -12 -2 -11 1 2 11 14 11 15 16 5 27 -8 9 -8 11 0 6
6 -3 13 -3 16 1 2 5 2 2 1 -4 -2 -7 3 -13 10 -13 8 0 16 -7 20 -15 3 -8 2 -15
-3 -15 -4 0 -8 -7 -8 -15 0 -8 4 -15 9 -15 4 0 8 7 8 16 0 8 5 12 10 9 6 -3
10 -1 10 4 0 6 -4 11 -10 11 -20 0 -10 21 14 30 19 7 23 14 19 30 -4 13 0 25
7 30 11 7 11 11 0 25 -14 17 -22 95 -10 95 4 0 7 -16 7 -35 0 -19 2 -38 6 -41
11 -11 27 7 27 29 0 18 -2 19 -10 7 -8 -12 -9 -10 -7 7 4 31 14 38 31 24 12
-10 15 -8 14 17 -1 28 -17 37 -34 19 -12 -12 -20 -8 -21 13 -1 11 3 23 9 26 7
4 8 2 4 -4 -4 -7 -3 -12 2 -12 12 0 19 26 18 62 -1 21 2 25 14 18 19 -10 45 3
36 18 -4 6 -14 9 -24 6 -14 -5 -14 -4 -2 4 9 7 18 8 26 1 17 -14 46 44 30 62
-8 9 -8 10 2 5 7 -4 12 -1 12 8 0 9 -6 16 -12 16 -9 0 -8 3 2 9 8 6 18 7 24 4
5 -3 6 -1 3 5 -4 5 -17 8 -30 6 -17 -4 -15 -1 8 11 42 23 63 63 53 100 -4 17
-3 34 2 39 6 6 10 19 10 31 0 12 7 30 15 41 11 13 14 14 13 4 -2 -8 -7 -18
-12 -21 -4 -4 -3 -10 3 -13 6 -4 11 -2 11 3 0 21 2 26 12 38 6 7 15 10 21 6 6
-3 7 -1 3 5 -4 6 -13 9 -20 6 -8 -3 -26 6 -40 21 -28 28 -32 36 -15 32 6 -1
14 4 17 12 3 9 0 11 -8 6 -9 -6 -11 -4 -5 5 5 8 1 18 -10 26 -16 12 -16 13 3
11 12 0 19 -3 17 -5 -2 -2 5 -13 15 -24 22 -23 16 -50 -8 -40 -15 5 -15 4 -3
-11 9 -12 17 -14 26 -7 6 5 16 6 20 2 5 -4 5 -1 1 5 -5 8 -1 13 10 13 16 0 16
1 -2 15 -18 14 -18 16 8 19 17 1 17 49 0 52 -7 1 -8 0 -2 -3 17 -8 11 -23 -9
-23 -11 0 -22 -8 -24 -18 -4 -13 -5 -11 -6 6 0 12 4 22 11 22 9 0 9 3 0 12
-19 19 -14 27 17 22 33 -5 48 10 31 31 -7 8 -7 15 -1 19 5 3 11 0 14 -6 3 -7
4 -3 4 10 -1 15 -8 22 -22 23 -20 0 -20 0 0 9 13 6 15 9 5 9 -13 1 -13 2 0 11
11 7 5 10 -24 10 -42 0 -45 9 -5 12 14 1 34 13 44 27 16 22 17 24 2 18 -21 -8
-22 6 -3 26 10 10 14 31 12 68 -2 33 1 57 8 61 8 6 7 8 -1 8 -7 0 -13 9 -13
21 0 13 4 18 13 14 6 -4 3 1 -7 9 -13 11 -15 16 -6 16 9 0 8 6 -5 20 -16 18
-16 20 -2 20 10 0 17 6 17 14 0 7 7 19 15 26 17 14 20 30 5 30 -5 0 -10 -6
-10 -14 0 -8 -5 -18 -12 -22 -8 -5 -9 -2 -5 9 3 9 2 19 -3 22 -5 3 -8 14 -7
25 1 14 4 16 14 8 16 -13 19 -11 28 25 6 23 4 27 -14 27 -15 0 -19 -5 -15 -17
4 -14 2 -13 -7 2 -7 11 -17 23 -22 26 -5 4 -5 9 2 13 6 4 11 2 11 -3 0 -11 32
-15 42 -6 3 3 2 25 -2 50 -4 25 -3 45 2 45 5 0 6 5 2 11 -3 6 -19 9 -35 7 -21
-3 -26 -1 -19 7 5 7 6 16 2 20 -4 5 -1 5 6 1 17 -10 15 19 -3 37 -13 13 -13
16 1 21 8 3 13 2 10 -3 -3 -4 1 -16 8 -26 12 -17 14 -16 18 13 2 17 1 29 -3
26 -7 -4 -10 19 -9 84 0 12 -6 22 -13 22 -7 0 -8 3 -2 8 12 9 15 52 3 52 -4 0
-8 5 -8 12 0 6 -8 20 -17 30 -20 22 -26 48 -11 48 6 0 8 -7 5 -15 -4 -8 -2
-17 3 -20 6 -4 10 2 11 12 0 14 2 14 9 -4 15 -36 18 -27 9 29 -5 28 -5 56 -2
61 3 6 1 7 -4 4 -6 -4 -17 0 -24 9 -10 12 -10 15 2 12 10 -2 13 5 11 22 -4 41
-23 80 -36 73 -6 -4 -5 1 3 10 11 14 11 23 3 42 -12 27 -4 32 18 12 11 -9 11
-8 0 7 -8 11 -14 29 -13 40 1 15 0 16 -3 4 -3 -10 -12 -18 -19 -18 -18 0 -16
40 3 63 19 21 9 23 -12 1 -9 -9 -16 -11 -16 -4 0 6 -5 8 -11 4 -6 -3 -4 7 5
23 8 17 13 43 11 59 -2 16 -4 32 -4 36 -1 10 -31 -2 -31 -13 0 -4 6 -6 13 -3
17 6 16 -31 -1 -48 -9 -9 -12 -8 -12 5 0 9 0 18 1 20 0 1 -4 14 -10 30 -8 21
-8 27 4 27 7 0 17 5 21 12 5 8 0 9 -14 6 -12 -4 -25 -1 -29 4 -3 6 -1 8 4 5 6
-4 13 0 17 8 3 8 1 17 -5 20 -5 4 -7 10 -4 15 3 4 -2 13 -11 20 -12 10 -12 15
-2 21 9 6 8 9 -4 14 -10 4 -14 13 -11 22 4 9 -3 23 -18 35 -13 11 -19 17 -13
14 7 -3 14 1 17 9 4 9 1 12 -7 9 -7 -3 -19 3 -27 12 -13 16 -12 17 9 12 30 -8
28 0 -3 12 -15 6 -25 17 -25 29 0 29 -11 52 -21 45 -5 -3 -9 -2 -8 3 4 16 -13
83 -20 78 -7 -4 -43 101 -40 119 0 5 -3 12 -8 15 -5 3 -26 38 -45 78 -20 39
-39 69 -42 66 -3 -4 -6 6 -6 21 0 15 -4 25 -9 21 -12 -7 -31 26 -31 54 0 12
-5 21 -11 21 -5 0 -8 4 -4 9 3 5 -8 33 -25 61 -16 28 -30 57 -30 64 0 7 -11
35 -25 62 -14 27 -23 55 -20 62 2 6 1 12 -3 12 -4 0 -8 9 -9 21 -1 14 3 19 13
15 8 -3 14 1 14 10 0 8 -4 12 -10 9 -5 -3 -10 1 -10 9 0 19 26 22 32 4 3 -7 7
-5 11 6 4 9 3 15 -2 11 -5 -3 -12 -1 -16 5 -4 6 -11 7 -17 4 -7 -4 -8 -2 -4 5
4 7 16 9 28 5 17 -5 19 -2 16 23 -2 16 -8 27 -15 26 -7 -2 -13 2 -13 7 0 6 7
10 15 10 8 0 15 9 16 20 3 61 2 78 -4 93 -3 9 -1 19 5 23 7 4 8 3 4 -4 -5 -8
1 -12 15 -12 19 0 20 2 8 17 -12 15 -12 16 1 8 13 -8 13 -7 1 9 -10 12 -11 20
-3 28 13 13 4 40 -11 31 -6 -4 -7 -1 -1 8 12 20 14 40 4 59 -5 10 -4 22 2 31
8 11 9 11 4 -3 -3 -12 0 -18 10 -18 10 0 12 5 7 18 -5 9 -8 32 -8 50 0 20 -4
32 -12 32 -7 0 -13 5 -13 11 0 5 4 8 9 5 5 -3 7 10 5 28 -2 30 0 34 17 31 16
-3 17 -1 9 14 -5 10 -6 21 -3 25 3 3 1 6 -5 6 -6 0 -16 -8 -21 -17 -7 -13 -10
-14 -11 -4 0 7 11 24 26 37 21 20 22 24 7 24 -15 0 -16 2 -3 10 13 9 13 10 0
10 -12 0 -13 2 -1 9 11 7 11 9 0 14 -12 5 -11 7 1 16 11 8 17 5 23 -11 11 -31
24 -9 26 45 1 10 6 15 11 12 7 -4 6 -13 -1 -27 -8 -15 -8 -19 0 -13 7 4 18 2
26 -5 8 -7 15 -7 19 -1 4 5 2 12 -3 16 -6 3 -8 13 -5 23 5 13 4 14 -4 4 -7
-11 -10 -10 -16 3 -10 26 -7 42 5 25 8 -12 9 -11 6 5 -2 11 -9 19 -17 17 -11
-3 -11 0 0 12 11 15 7 20 -13 17 -5 -1 -5 8 -2 20 6 19 4 21 -11 15 -15 -6
-16 -4 -7 5 9 9 8 17 -4 35 -9 15 -13 34 -9 49 5 18 2 25 -9 25 -8 0 -15 5
-15 11 0 5 5 7 10 4 6 -3 10 3 10 14 0 12 4 21 9 21 6 0 8 -9 6 -20 -6 -29 10
-33 23 -5 9 19 9 25 -1 26 -6 0 0 6 14 12 45 21 70 54 36 48 -5 -1 -6 3 -2 9
6 9 -7 14 -28 11 -4 -1 -2 8 5 19 7 11 22 20 33 19 17 0 17 -2 -5 -10 -19 -8
-22 -12 -10 -19 8 -5 18 -6 22 -4 4 3 8 0 8 -6 0 -6 5 -8 10 -5 6 3 10 1 10
-6 0 -7 8 -5 20 6 19 18 20 17 21 -6 l1 -24 7 25 c4 15 10 20 14 13 4 -6 4
-18 1 -27 -3 -9 -1 -16 6 -16 6 0 9 4 5 9 -3 5 -1 12 4 16 5 3 9 13 8 23 -1
14 -8 17 -31 14 -17 -3 -34 -9 -37 -14 -4 -6 -9 -6 -13 1 -4 6 -2 11 4 11 7 0
10 7 6 15 -3 8 2 21 10 30 9 8 11 15 5 15 -6 0 -11 5 -11 12 0 8 7 5 18 -5 16
-17 16 -19 0 -31 -10 -7 -15 -16 -11 -19 10 -11 43 -8 43 4 0 5 -6 7 -12 3
-10 -5 -10 -3 0 7 11 11 14 12 21 1 5 -8 11 -13 15 -13 3 1 8 1 10 1 2 0 0
-16 -4 -35 -9 -42 -6 -44 16 -10 15 24 15 27 0 44 -9 9 -13 21 -9 25 4 4 1 11
-6 15 -10 7 -8 10 8 16 28 9 38 0 22 -19 -10 -12 -9 -20 4 -40 18 -28 29 -34
22 -13 -2 6 3 18 12 25 14 11 13 12 -5 3 -21 -10 -34 -6 -34 10 0 5 6 6 14 3
8 -3 17 0 21 5 3 6 12 8 18 4 8 -5 8 -2 -1 9 -10 13 -9 15 8 14 12 0 25 -8 31
-16 8 -12 10 -9 6 13 -6 37 7 43 27 12 20 -30 41 -24 43 13 0 15 -1 19 -4 10
-6 -25 -25 -22 -53 7 -25 27 -41 25 -33 -4 3 -11 -2 -21 -11 -24 -9 -4 -16 -2
-16 4 0 6 -4 7 -10 4 -5 -3 -10 -15 -10 -26 0 -10 -5 -19 -11 -19 -5 0 -7 4
-4 10 3 5 -1 20 -10 33 -14 22 -14 24 9 35 19 8 27 8 35 -2 6 -7 7 -17 3 -21
-4 -5 -2 -5 5 -1 7 4 10 13 6 21 -3 8 -1 15 3 16 46 4 62 4 58 -3 -2 -3 0 -10
6 -13 6 -4 9 -1 8 7 -2 7 3 12 10 10 8 -1 11 2 7 8 -3 5 -1 10 4 10 6 0 11 -5
11 -11 0 -8 5 -7 15 1 20 16 3 30 -29 23 -19 -4 -19 -3 -3 7 9 6 15 15 12 21
-4 5 -1 9 4 9 6 0 11 5 11 11 0 8 -5 8 -15 -1 -12 -10 -15 -9 -15 4 0 10 5 14
10 11 5 -3 10 0 10 7 0 7 7 3 15 -9 8 -12 12 -30 9 -40 -5 -15 -4 -16 6 -3 9
12 13 12 17 2 4 -10 8 -10 19 -1 17 14 19 49 3 49 -6 0 -9 -7 -5 -15 4 -13 2
-14 -14 -5 -23 12 -26 21 -7 17 6 -1 11 4 9 12 -2 8 3 11 13 8 18 -8 20 4 3
21 -7 7 -8 12 -2 12 16 0 18 111 2 121 -10 7 -10 9 -1 9 10 0 13 223 13 1040
l0 1040 -9400 0 -9400 0 0 -4700z m12962 3831 c42 -12 917 -332 1945 -712
1027 -380 1905 -704 1951 -721 63 -23 82 -34 82 -49 0 -10 -1 -19 -3 -19 -2 0
-449 165 -993 366 -544 201 -1428 528 -1964 726 -692 256 -1014 370 -1108 394
-74 18 -137 36 -140 40 -13 13 153 -5 230 -25z m3354 -313 c41 -11 74 -26 74
-31 0 -5 -29 -65 -65 -133 l-66 -124 116 42 c63 22 118 38 121 35 3 -3 -6 -27
-20 -55 l-25 -49 -126 -44 -126 -43 -44 -84 c-25 -46 -45 -87 -45 -91 0 -4 77
-29 170 -55 94 -27 170 -52 170 -55 0 -4 -15 -34 -32 -68 l-33 -60 -255 73
c-140 41 -256 74 -258 74 -1 0 20 43 48 95 l51 94 -48 -14 c-26 -8 -49 -15
-50 -15 -2 0 9 25 24 55 25 51 31 57 80 72 l53 17 102 193 c56 106 103 193
106 193 2 0 37 -10 78 -22z m-13576 -106 c96 -35 192 -95 262 -166 74 -74 119
-146 156 -248 l27 -73 3 -421 c2 -350 0 -433 -12 -487 -44 -187 -178 -356
-351 -442 -129 -63 -158 -66 -629 -63 -411 3 -423 4 -486 26 -199 71 -357 229
-423 422 -21 62 -22 83 -25 493 -3 407 -2 431 18 503 62 228 238 405 462 464
67 18 106 19 503 17 422 -2 431 -2 495 -25z m9910 -62 c26 -26 25 -69 -3 -111
-28 -42 -67 -49 -96 -20 -22 22 -28 51 -11 51 5 0 18 -10 30 -22 14 -16 23
-19 31 -11 8 8 3 15 -18 25 -36 17 -43 58 -14 87 26 26 55 27 81 1z m189 -69
c12 -8 12 -16 1 -54 -6 -25 -10 -49 -7 -54 7 -12 -28 -43 -48 -43 -8 0 -15 9
-15 20 0 11 -6 20 -13 20 -7 0 -22 7 -33 15 -18 15 -17 17 31 60 51 47 61 51
84 36z m-121 -18 c-2 -10 -10 -18 -18 -18 -8 0 -16 8 -18 18 -2 12 3 17 18 17
15 0 20 -5 18 -17z m-975 -136 c-42 -117 -61 -145 -78 -117 -9 15 109 259 120
248 2 -2 -17 -61 -42 -131z m1200 117 c9 -10 -46 -154 -59 -154 -23 0 -24 18
-4 69 16 43 17 51 5 51 -15 0 -20 21 -8 33 8 9 58 9 66 1z m-255 -57 c2 -10
-3 -17 -12 -17 -18 0 -29 16 -21 31 9 14 29 6 33 -14z m400 -80 c3 -81 1 -88
-15 -85 -10 2 -19 13 -21 26 -5 30 -36 46 -52 27 -14 -16 -36 -20 -44 -7 -8
14 95 133 113 130 13 -3 17 -20 19 -91z m100 -6 l3 -53 35 36 c33 34 53 43 67
30 6 -6 -39 -133 -51 -146 -4 -4 -13 -3 -21 1 -10 7 -10 13 -2 29 19 35 12 47
-13 23 -30 -28 -46 -20 -47 22 l-1 32 -14 -32 c-8 -18 -21 -33 -29 -33 -19 0
-19 7 -1 56 32 88 36 95 54 92 13 -2 18 -15 20 -57z m-867 -242 c30 -16 12
-32 -28 -24 -32 6 -35 4 -46 -25 -7 -17 -18 -29 -26 -28 -22 5 -23 20 -1 56
15 25 26 32 51 32 16 0 39 -5 50 -11z m-4541 -369 l0 -350 -75 0 -75 0 0 350
0 350 75 0 75 0 0 -350z m230 0 l0 -351 -72 3 -73 3 -3 348 -2 347 75 0 75 0
0 -350z m4490 305 c16 -8 31 -24 35 -35 8 -24 -2 -77 -17 -86 -18 -11 -29 11
-19 39 11 28 -6 57 -35 57 -8 0 -14 9 -14 20 0 24 11 25 50 5z m-8340 -60 l0
-65 -105 0 -105 0 0 -265 0 -265 -75 0 -75 0 0 265 0 265 -105 0 -105 0 0 65
0 65 285 0 285 0 0 -65z m2152 -161 l73 -226 75 226 75 226 72 0 c66 0 72 -2
78 -22 4 -13 37 -115 73 -228 l66 -205 74 228 73 227 76 0 c56 0 74 -3 71 -12
-2 -7 -51 -156 -108 -330 l-104 -318 -81 0 -82 0 -69 214 c-38 118 -70 213
-72 212 -2 -2 -35 -98 -75 -212 l-72 -209 -80 0 -80 0 -107 320 c-59 176 -107
323 -107 328 -1 4 35 7 79 7 l79 0 73 -226z m-592 126 l0 -59 63 -3 62 -3 3
-57 3 -58 -66 0 -65 0 0 -108 c0 -138 10 -157 80 -149 l46 6 17 -47 c24 -63
11 -75 -87 -80 -58 -3 -81 0 -112 16 -79 40 -94 80 -94 243 l0 118 -37 3 c-33
3 -39 7 -43 32 l-5 29 -13 -37 c-15 -41 -12 -40 -76 -21 -89 27 -176 15 -176
-24 0 -27 20 -36 119 -55 52 -9 99 -25 122 -41 101 -66 60 -215 -70 -254 -61
-18 -181 -14 -255 9 -36 11 -67 24 -69 28 -3 4 6 31 19 60 l23 53 29 -15 c16
-8 58 -20 93 -27 79 -14 133 -3 137 28 4 28 -15 37 -102 52 -120 21 -167 48
-187 108 -24 73 17 149 101 186 57 26 193 27 260 4 29 -11 48 -13 54 -7 6 6
25 10 43 10 l33 0 0 60 0 60 75 0 75 0 0 -60z m3080 0 l0 -60 60 0 60 0 0 -60
0 -60 -60 0 -60 0 0 -111 c0 -140 6 -152 72 -147 l50 3 19 -48 19 -48 -37 -16
c-52 -21 -163 -14 -200 13 -62 47 -68 63 -71 215 l-4 139 -39 0 -39 0 0 60 0
60 40 0 40 0 0 60 0 60 75 0 75 0 0 -60z m3548 -12 c126 -47 159 -67 135 -81
-5 -3 -71 18 -148 47 -99 36 -141 56 -143 69 -2 9 0 17 5 17 4 0 72 -24 151
-52z m-165 -34 c-1 -5 -5 -22 -8 -37 -7 -25 -4 -29 24 -40 36 -13 41 -37 8
-37 -54 0 -78 43 -61 108 6 22 41 28 37 6z m-7703 -64 l0 -70 -31 0 c-40 0
-96 -27 -112 -54 -7 -13 -14 -81 -17 -171 l-5 -150 -72 -3 -73 -3 0 256 0 255
70 0 70 0 0 -31 0 -31 30 26 c17 14 47 28 68 31 20 4 42 8 47 10 6 2 13 4 18
4 4 1 7 -30 7 -69z m2950 44 c47 -20 79 -51 101 -99 16 -34 19 -66 19 -217 l0
-178 -70 0 c-68 0 -70 1 -70 26 l0 25 -32 -23 c-28 -20 -45 -23 -120 -23 -82
0 -88 2 -125 31 -92 75 -77 196 31 245 31 14 65 19 139 19 91 0 97 1 97 20 0
12 -12 32 -26 45 -23 21 -37 25 -88 25 -42 0 -74 -6 -101 -20 -21 -11 -39 -19
-40 -17 -15 19 -56 99 -54 101 2 2 23 13 46 25 82 41 213 48 293 15z m1017 -6
c82 -39 133 -119 136 -217 l2 -56 -187 -3 c-104 -1 -188 -5 -188 -8 0 -2 8
-16 17 -31 35 -54 137 -70 207 -32 l39 21 40 -40 c22 -22 36 -45 33 -51 -4 -6
-28 -23 -53 -38 -60 -35 -184 -44 -260 -19 -108 36 -173 127 -173 244 0 73 15
114 59 165 83 93 212 119 328 65z m-3777 -133 c0 -202 10 -225 99 -225 49 0
87 30 101 78 5 20 10 97 10 170 l0 132 75 0 75 0 -2 -252 -3 -253 -70 0 c-63
0 -70 2 -73 21 l-3 21 -46 -24 c-86 -43 -199 -26 -260 39 -46 49 -53 86 -53
273 l0 175 75 0 75 0 0 -155z m7800 46 c0 -54 -71 -89 -116 -57 -26 20 -6 43
24 27 27 -15 49 -5 56 25 7 28 36 33 36 5z m6260 -78 c0 -2 -8 -3 -18 -3 -10
0 -18 8 -19 19 -2 18 0 19 18 3 10 -9 19 -18 19 -19z m-60 -7 c0 -3 -4 -8 -10
-11 -5 -3 -10 -1 -10 4 0 6 5 11 10 11 6 0 10 -2 10 -4z m-65 -34 c-3 -3 -11
0 -18 7 -9 10 -8 11 6 5 10 -3 15 -9 12 -12z m-7274 -101 c-41 -115 -60 -156
-67 -148 -3 3 8 43 24 88 45 127 63 169 73 169 5 0 -9 -49 -30 -109z m7376 73
c-3 -3 -12 -4 -19 -1 -8 3 -5 6 6 6 11 1 17 -2 13 -5z m-52 -34 c3 -6 -1 -7
-9 -4 -18 7 -21 14 -7 14 6 0 13 -4 16 -10z m-133 -42 c-7 -7 -12 -8 -12 -2 0
14 12 26 19 19 2 -3 -1 -11 -7 -17z m-1361 -33 c154 -60 333 -164 315 -182 -2
-2 -55 21 -117 53 -97 48 -160 75 -316 135 -15 5 -21 14 -17 24 3 8 9 15 13
15 4 0 59 -20 122 -45z m1316 21 c-3 -7 0 -19 6 -25 6 -6 9 -12 6 -14 -2 -3
-15 7 -29 21 -17 18 -19 24 -7 19 9 -3 17 -2 17 3 0 6 3 10 6 10 3 0 4 -6 1
-14z m-4676 -116 c11 -6 19 -21 19 -35 0 -31 -25 -33 -33 -4 -8 29 -38 21 -55
-14 -21 -43 -9 -61 33 -53 36 7 44 -1 23 -22 -17 -17 -58 -15 -80 5 -23 21
-23 60 2 101 21 34 53 42 91 22z m4542 -37 c8 -8 -12 -33 -26 -33 -6 0 -2 7 9
15 23 17 4 20 -29 4 -21 -10 -21 -10 -3 5 21 17 38 20 49 9z m-4442 -33 c21
-12 26 -59 9 -91 -20 -37 -100 -15 -100 27 0 19 19 57 34 66 15 11 34 10 57
-2z m89 -5 c0 -8 -5 -15 -11 -15 -5 0 -7 -5 -4 -10 10 -16 -27 -110 -43 -110
-16 0 -14 17 15 97 17 49 43 72 43 38z m61 -55 c9 0 22 -7 29 -15 19 -23 -6
-105 -31 -105 -23 0 -23 -1 -3 45 13 31 13 39 2 46 -15 10 -36 -13 -45 -48 -6
-27 -33 -31 -33 -5 0 9 9 37 21 61 15 34 22 42 31 33 7 -7 20 -12 29 -12z
m120 -40 c10 -6 19 -20 19 -30 0 -25 -16 -26 -29 -3 -5 10 -13 14 -18 9 -4 -4
2 -15 15 -23 45 -31 9 -88 -40 -62 -23 12 -38 28 -38 42 0 14 23 7 36 -10 7
-10 16 -15 20 -10 4 4 -2 17 -14 30 -25 27 -27 38 -10 55 15 15 33 15 59 2z
m4119 -150 c0 -5 -2 -10 -4 -10 -3 0 -8 5 -11 10 -3 6 -1 10 4 10 6 0 11 -4
11 -10z m0 -36 c0 -8 5 -14 10 -14 6 0 10 -4 10 -9 0 -5 -9 -7 -19 -4 -13 3
-18 10 -14 21 6 14 4 14 -17 -1 -32 -22 -44 -22 -24 1 18 22 54 26 54 6z
m-1517 -48 c18 -7 41 -26 51 -41 19 -28 14 -46 -8 -30 -58 43 -71 48 -112 47
-30 0 -44 4 -44 13 0 27 62 33 113 11z m1463 5 c-4 -5 -2 -11 4 -13 13 -4 22
-48 10 -48 -5 0 -7 -8 -3 -17 5 -15 4 -16 -8 -5 -10 9 -11 17 -3 30 9 13 8 21
-2 30 -14 12 -19 8 -14 -13 1 -5 -2 -6 -6 -2 -11 11 -14 38 -4 32 5 -3 11 -1
15 5 3 5 8 10 11 10 3 0 3 -4 0 -9z m-3256 -41 c24 -24 27 -60 5 -60 -9 0 -20
11 -25 25 -5 14 -14 25 -19 25 -19 0 -41 -32 -41 -60 0 -28 2 -29 42 -27 28 1
49 10 64 25 29 28 48 28 75 1 23 -23 20 -60 -8 -91 -30 -34 -93 -10 -93 35 0
19 -1 19 -18 4 -39 -35 -102 -8 -102 44 0 81 71 128 120 79z m1794 -21 c14
-11 26 -25 26 -30 0 -15 -36 -10 -50 6 -7 8 -25 15 -41 15 -19 0 -29 5 -29 15
0 23 62 19 94 -6z m388 -86 c61 -24 74 -33 76 -53 2 -14 8 -30 13 -36 5 -6 7
-19 3 -28 -5 -14 -11 -17 -30 -16 -3 1 -13 -9 -22 -20 l-17 -22 -143 53 c-78
28 -149 57 -159 64 -15 11 -15 17 6 73 13 34 28 63 35 65 11 4 80 -20 238 -80z
m-416 53 c19 -15 19 -15 -1 -30 -26 -20 -32 -20 -45 4 -20 37 9 53 46 26z
m-1584 -22 c-10 -49 -45 -124 -59 -124 -19 0 -14 33 16 103 20 47 50 62 43 21z
m52 -16 c-23 -77 -47 -128 -60 -128 -19 0 -18 15 7 80 26 68 27 70 45 70 11 0
13 -6 8 -22z m80 -60 c20 -28 20 -43 0 -62 -8 -9 -12 -16 -8 -16 3 0 1 -7 -6
-15 -31 -37 -97 5 -85 53 15 60 70 82 99 40z m-4204 -6 c0 -21 -26 -60 -34
-51 -3 3 -3 20 0 37 7 34 34 45 34 14z m4301 -22 c22 -12 26 -50 5 -50 -8 0
-17 7 -20 16 -5 13 -9 14 -22 4 -18 -16 -14 -56 5 -52 8 2 21 0 30 -3 14 -6
14 -8 -3 -21 -27 -19 -42 -18 -66 6 -26 26 -25 51 1 84 22 28 39 32 70 16z
m90 -15 c1 -5 5 -15 11 -22 11 -13 2 -36 -11 -28 -12 7 -30 -40 -24 -64 6 -25
-18 -29 -37 -6 -10 12 -10 21 -1 44 7 16 11 35 9 43 -2 7 4 21 12 31 16 17 41
19 41 2z m74 -5 c4 -6 3 -16 -2 -23 -5 -7 -17 -38 -28 -69 -17 -53 -31 -68
-48 -52 -3 3 3 29 15 58 11 28 24 61 29 74 9 24 24 29 34 12z m48 -38 c-2 -13
5 -23 18 -27 41 -13 41 -93 -1 -115 -22 -12 -90 13 -90 33 0 12 36 113 47 130
9 15 28 0 26 -21z m2652 7 c11 -16 1 -19 -13 -3 -7 8 -8 14 -3 14 5 0 13 -5
16 -11z m-2556 -109 c-21 -64 -35 -81 -52 -64 -5 5 35 123 50 147 3 5 10 4 16
-2 7 -7 3 -31 -14 -81z m99 8 c15 -15 15 -47 0 -81 -10 -20 -20 -27 -43 -27
-38 0 -55 16 -55 50 0 56 63 93 98 58z m1983 -79 c-1 -97 -25 -221 -69 -354
-31 -93 -40 -110 -59 -113 -29 -4 -29 -2 8 98 34 95 93 319 104 398 10 72 17
59 16 -29z m-1881 36 c6 -8 10 -22 8 -31 -3 -16 -4 -17 -20 -1 -26 26 -34 20
-9 -7 31 -33 24 -60 -15 -64 -30 -3 -64 18 -64 39 0 13 24 11 38 -3 6 -6 15
-8 19 -5 4 4 -3 14 -15 23 -21 15 -29 44 -15 57 12 12 60 7 73 -8z m2318 -190
c-3 -3 -9 2 -12 12 -6 14 -5 15 5 6 7 -7 10 -15 7 -18z m2 -49 c0 -2 -7 -6
-15 -10 -8 -3 -15 -1 -15 4 0 6 7 10 15 10 8 0 15 -2 15 -4z m-1135 -56 c4 -6
-3 -34 -14 -64 l-20 -53 55 -19 c38 -13 54 -23 54 -36 0 -23 -3 -22 -67 2
l-53 20 -14 -33 c-7 -19 -17 -43 -20 -55 -8 -24 -36 -30 -36 -8 0 7 7 33 15
56 20 57 20 55 -23 68 -46 14 -80 38 -69 48 7 7 65 -4 108 -21 16 -6 21 2 48
78 11 28 25 35 36 17z m721 -82 c-13 -80 -26 -118 -42 -118 -11 0 -14 5 -9 18
4 9 17 45 29 79 11 35 23 63 25 63 2 0 1 -19 -3 -42z m-7006 -193 c0 -8 -4
-15 -9 -15 -13 0 -22 16 -14 24 11 11 23 6 23 -9z m6967 -314 c262 -64 284
-71 342 -111 51 -34 62 -46 59 -64 -3 -12 -90 -147 -194 -299 -145 -213 -193
-276 -208 -274 -15 2 -46 77 -161 397 -100 277 -139 399 -132 408 5 6 11 12
12 12 1 0 128 -31 282 -69z m-7107 -53 c0 -26 -25 -78 -38 -78 -13 0 -12 11 9
68 9 23 29 31 29 10z m-310 -390 c-184 -239 -207 -265 -261 -292 -66 -32 -153
-35 -216 -7 -23 11 -115 75 -204 143 -155 117 -161 123 -133 129 88 19 101 14
234 -86 130 -99 176 -120 236 -109 49 9 82 39 186 173 l90 116 61 11 c34 6 64
9 66 7 2 -1 -24 -40 -59 -85z m8268 -58 c10 -17 10 -20 -4 -20 -8 0 -12 5 -9
10 3 6 2 10 -3 10 -6 0 -12 7 -15 14 -8 21 16 10 31 -14z m-15081 -19 c40 -11
88 -26 105 -34 62 -27 83 -37 103 -49 108 -69 150 -102 208 -162 91 -94 85
-85 154 -201 12 -19 26 -48 44 -90 18 -41 48 -142 60 -203 16 -83 7 -311 -15
-372 -9 -25 -16 -50 -16 -57 0 -7 -11 -36 -24 -65 -12 -29 -26 -60 -29 -68 -4
-8 -13 -24 -19 -34 -7 -11 -28 -45 -47 -75 -45 -72 -170 -197 -242 -242 -30
-19 -64 -40 -75 -47 -10 -6 -30 -17 -44 -22 -14 -6 -32 -14 -40 -19 -9 -5 -56
-21 -105 -37 -85 -27 -100 -29 -260 -28 -134 0 -179 4 -215 17 -25 9 -51 17
-58 17 -11 0 -45 13 -122 49 -14 6 -34 17 -45 23 -108 69 -150 102 -208 162
-91 94 -85 85 -154 201 -73 120 -113 278 -112 440 0 115 6 162 32 257 19 68
53 151 79 193 69 108 102 150 162 208 85 83 90 87 141 118 70 42 80 48 95 55
86 39 123 54 136 54 8 0 24 4 34 10 65 35 355 36 477 1z m15127 -229 c3 -5 -1
-9 -9 -9 -8 0 -12 4 -9 9 3 4 7 8 9 8 2 0 6 -4 9 -8z m-8279 -65 c-4 -9 -13
-13 -21 -10 -10 4 -11 10 -3 25 13 23 33 10 24 -15z m-255 -22 c43 -15 180
-110 180 -125 0 -12 -30 -80 -35 -80 -3 0 -40 26 -81 57 -68 51 -82 57 -135
61 -81 6 -103 -11 -224 -165 l-101 -128 -58 -8 c-32 -5 -60 -6 -63 -4 -5 6
192 263 246 320 74 80 174 106 271 72z m8580 5 c0 -5 -2 -10 -4 -10 -3 0 -8 5
-11 10 -3 6 -1 10 4 10 6 0 11 -4 11 -10z m-15 -50 c3 -5 1 -10 -4 -10 -6 0
-11 5 -11 10 0 6 2 10 4 10 3 0 8 -4 11 -10z m42 -117 c-4 -3 -2 -12 5 -20 6
-7 8 -16 4 -20 -3 -3 -6 -1 -6 6 0 7 -4 10 -9 7 -5 -4 -8 2 -6 11 5 24 4 23
12 23 3 0 3 -3 0 -7z m13 -149 c0 -8 -5 -12 -10 -9 -6 4 -8 11 -5 16 9 14 15
11 15 -7z m10 -58 c0 -3 -4 -8 -10 -11 -5 -3 -10 -1 -10 4 0 6 5 11 10 11 6 0
10 -2 10 -4z m-33 -58 c-3 -7 -5 -2 -5 12 0 14 2 19 5 13 2 -7 2 -19 0 -25z
m3 -108 c0 -5 -2 -10 -4 -10 -3 0 -8 5 -11 10 -3 6 -1 10 4 10 6 0 11 -4 11
-10z m26 -97 c-10 -10 -19 5 -10 18 6 11 8 11 12 0 2 -7 1 -15 -2 -18z m27
-12 c3 -13 1 -18 -9 -14 -7 2 -10 11 -7 19 7 19 10 18 16 -5z m-1623 -53 c0
-31 -74 -208 -87 -208 -19 0 -11 38 29 143 18 46 35 77 44 77 8 0 14 -6 14
-12z m1582 -12 c7 4 8 2 4 -5 -9 -13 -26 -5 -25 12 0 9 2 8 6 -1 2 -6 10 -9
15 -6z m-4 -51 c-3 -3 -9 2 -12 12 -6 14 -5 15 5 6 7 -7 10 -15 7 -18z m-21
-32 c0 -9 -4 -10 -14 -2 -7 6 -13 12 -13 14 0 1 6 2 13 2 8 0 14 -6 14 -14z
m38 7 c-3 -5 -11 -10 -16 -10 -6 0 -7 5 -4 10 3 6 11 10 16 10 6 0 7 -4 4 -10z
m-15 -104 c0 -2 -11 -6 -25 -8 -13 -3 -22 -1 -19 3 5 9 44 13 44 5z m0 -20 c0
-2 -8 -10 -17 -17 -16 -13 -17 -12 -4 4 13 16 21 21 21 13z m-30 -56 c0 -5 -2
-10 -4 -10 -3 0 -8 5 -11 10 -3 6 -1 10 4 10 6 0 11 -4 11 -10z m44 -51 c-7
-11 -41 -12 -48 0 -3 4 6 6 21 3 18 -3 24 -1 19 7 -4 6 -12 8 -18 5 -7 -4 -8
-2 -4 5 6 9 11 9 22 0 7 -6 11 -15 8 -20z m-39 -47 c-3 -3 -11 0 -18 7 -9 10
-8 11 6 5 10 -3 15 -9 12 -12z m10 -30 c-3 -3 -11 0 -18 7 -9 10 -8 11 6 5 10
-3 15 -9 12 -12z m5 -121 c0 -17 -18 -21 -24 -6 -3 9 0 15 9 15 8 0 15 -4 15
-9z m-105 -190 c3 -5 2 -12 -3 -15 -5 -3 -9 1 -9 9 0 17 3 19 12 6z m35 -25
c0 -2 -8 -10 -17 -17 -16 -13 -17 -12 -4 4 13 16 21 21 21 13z m-11540 -90
c68 -6 133 -22 171 -42 16 -8 29 -12 29 -8 0 7 121 -59 175 -97 104 -72 213
-205 266 -327 11 -26 24 -54 29 -63 31 -59 52 -296 36 -399 -24 -155 -109
-327 -214 -436 -61 -63 -135 -124 -151 -124 -6 0 -11 -3 -11 -7 0 -5 -33 -23
-73 -42 -39 -19 -79 -37 -88 -41 -64 -31 -298 -52 -399 -36 -342 54 -622 328
-680 665 -12 65 -14 219 -6 276 14 90 57 202 113 296 95 160 243 279 438 352
59 22 231 46 285 40 14 -1 50 -5 80 -7z m11488 -13 c-7 -9 -5 -17 6 -28 9 -9
16 -22 16 -30 0 -19 -27 -26 -34 -8 -4 11 -2 14 9 9 19 -7 20 8 1 23 -23 19
-27 50 -5 48 13 -1 15 -4 7 -14z m-31 -83 c-2 -11 -6 -22 -9 -26 -4 -3 -5 2
-3 13 2 10 4 21 4 26 1 4 3 7 6 7 3 0 4 -9 2 -20z m-50 -117 c-3 -10 -5 -4 -5
12 0 17 2 24 5 18 2 -7 2 -21 0 -30z m37 -2 c3 -5 -1 -11 -9 -15 -9 -3 -15 0
-15 9 0 16 16 20 24 6z m-102 -63 c-7 -7 -12 -8 -12 -2 0 14 12 26 19 19 2 -3
-1 -11 -7 -17z m-28 -52 c3 -16 2 -25 -1 -22 -4 4 -9 19 -11 34 -4 35 5 25 12
-12z m-19 -65 c3 -5 2 -12 -3 -15 -5 -3 -9 1 -9 9 0 17 3 19 12 6z m-5 -35 c0
-2 -9 -6 -20 -9 -11 -3 -18 -1 -14 4 5 9 34 13 34 5z m15 -56 c-2 -17 0 -28 4
-25 11 6 33 -20 24 -28 -10 -11 -35 -8 -28 3 3 6 -1 7 -10 4 -11 -4 -14 -2 -9
9 3 8 1 18 -5 22 -6 3 -11 2 -11 -2 0 -5 -9 -9 -19 -9 -11 0 -17 4 -15 8 3 4
11 8 18 8 7 0 21 9 31 20 23 26 24 26 20 -10z m15 -77 c0 -3 -6 -3 -14 0 -7 3
-18 1 -22 -3 -5 -5 -15 -5 -24 0 -11 7 -11 10 -2 10 7 0 11 4 7 10 -3 5 7 5
25 -1 16 -6 30 -13 30 -16z m-23 -37 c-13 -15 -27 -12 -27 5 0 6 5 7 10 4 6
-3 10 -1 10 5 0 6 4 8 10 5 6 -4 5 -11 -3 -19z m-92 -54 c-3 -3 -11 0 -18 7
-9 10 -8 11 6 5 10 -3 15 -9 12 -12z m-31 -54 c-3 -4 -9 -8 -15 -8 -5 0 -9 4
-9 8 0 5 7 9 15 9 8 0 12 -4 9 -9z m-19 -38 c3 -5 1 -10 -4 -10 -6 0 -11 5
-11 10 0 6 2 10 4 10 3 0 8 -4 11 -10z m15 -75 c11 -13 10 -14 -4 -9 -9 3 -16
10 -16 15 0 13 6 11 20 -6z m-10 -23 c0 -5 -7 -9 -15 -9 -8 0 -12 4 -9 9 3 4
9 8 15 8 5 0 9 -4 9 -8z m-1447 -39 c99 -42 166 -90 252 -177 134 -135 203
-292 212 -482 16 -325 -152 -602 -450 -739 -108 -50 -193 -68 -322 -68 -114 0
-194 15 -292 54 l-51 21 25 71 c55 157 72 204 87 239 9 21 16 48 16 62 0 13 4
26 8 28 4 2 17 25 29 53 l21 49 -43 124 -44 123 46 125 c28 77 52 128 64 134
13 8 17 18 13 38 -6 32 29 127 46 127 7 0 22 -26 33 -57 19 -52 24 -58 49 -58
37 0 44 13 114 208 l59 163 33 -6 c18 -3 61 -18 95 -32z m1389 -8 c0 -5 -5
-10 -11 -11 -8 -2 -7 -1 0 3 8 4 7 8 -2 15 -11 8 -11 9 -1 6 8 -2 14 -8 14
-13z m55 -30 c0 -8 -7 -15 -14 -15 -8 0 -12 -4 -8 -10 3 -5 13 -7 23 -4 14 5
13 3 -3 -10 -36 -30 -58 -3 -25 32 25 26 27 27 27 7z m-80 -27 c-3 -8 -6 -5
-6 6 -1 11 2 17 5 13 3 -3 4 -12 1 -19z m33 18 c0 -3 -4 -8 -10 -11 -5 -3 -10
-1 -10 4 0 6 5 11 10 11 6 0 10 -2 10 -4z m-27 -88 c-9 -10 -20 -15 -26 -11
-6 3 -1 10 11 14 15 6 20 14 16 26 -5 15 -4 15 5 3 7 -11 6 -19 -6 -32z m-3
-32 c0 -11 -19 -15 -25 -6 -3 5 1 10 9 10 9 0 16 -2 16 -4z m34 -17 c-6 -11
-24 -2 -24 11 0 5 7 7 15 4 8 -4 12 -10 9 -15z m-109 -111 c6 -4 2 -8 -7 -8
-10 0 -18 7 -18 17 0 9 3 12 8 7 4 -5 12 -12 17 -16z m-28 -50 c-3 -8 -6 -5
-6 6 -1 11 2 17 5 13 3 -3 4 -12 1 -19z m33 -47 c0 -5 -7 -12 -16 -15 -14 -5
-15 -4 -4 9 14 17 20 19 20 6z m-80 -64 c0 -2 -9 -12 -20 -22 -19 -17 -20 -17
-20 -1 0 9 4 15 9 11 5 -3 12 -1 16 5 6 10 15 14 15 7z m-44 -71 c1 -7 -6 -18
-17 -24 -16 -11 -17 -9 -7 19 10 29 20 32 24 5z m-6 -60 c0 -3 -4 -8 -10 -11
-5 -3 -10 -1 -10 4 0 6 5 11 10 11 6 0 10 -2 10 -4z m-30 -65 c0 -6 -5 -13
-12 -17 -6 -4 -8 -3 -4 4 3 5 0 13 -6 15 -8 3 -6 6 5 6 9 1 17 -3 17 -8z m-54
-113 c4 -7 3 -8 -4 -4 -7 4 -12 2 -12 -5 0 -7 -3 -10 -6 -6 -6 5 3 27 11 27 2
0 7 -5 11 -12z m39 -57 c3 -28 2 -40 -6 -36 -6 4 -8 13 -5 21 3 7 1 16 -3 19
-5 3 -7 14 -4 25 7 28 11 22 18 -29z m-59 0 c-3 -5 1 -12 10 -15 10 -4 13 -2
9 7 -4 6 1 3 9 -7 20 -25 20 -32 -1 -41 -28 -11 -64 -14 -58 -5 3 5 12 7 20 3
8 -3 15 -2 15 1 0 4 -10 11 -22 16 -18 7 -19 9 -5 9 19 1 24 21 5 21 -9 0 -8
4 2 10 19 12 23 12 16 1z m34 -86 c-5 -7 -7 -15 -3 -18 3 -4 1 -7 -6 -7 -7 0
-10 -4 -7 -9 4 -5 -2 -8 -11 -7 -11 2 -19 13 -20 27 l-2 24 8 -25 c5 -14 10
-20 12 -15 3 13 6 28 8 36 0 3 8 6 16 6 10 0 12 -4 5 -12z m-71 -21 c-14 -13
-16 -13 -16 0 0 8 4 13 9 10 4 -3 8 0 8 7 0 7 3 9 7 5 4 -3 0 -13 -8 -22z m1
-78 c0 -2 -7 -7 -16 -10 -8 -3 -12 -2 -9 4 6 10 25 14 25 6z m0 -46 l25 -19
-29 7 c-16 5 -31 13 -34 20 -5 17 9 14 38 -8z m-3 -26 c-3 -3 -12 -4 -19 -1
-8 3 -5 6 6 6 11 1 17 -2 13 -5z m-17 -29 c0 -1 -12 -2 -26 -2 -17 0 -22 2
-13 7 10 7 39 3 39 -5z m-77 -138 c-3 -5 5 -6 18 -3 21 6 22 6 6 -4 -10 -7
-21 -9 -24 -6 -4 3 -13 0 -22 -6 -14 -11 -14 -10 0 7 9 11 14 27 12 35 -4 13
-3 13 6 0 5 -8 7 -18 4 -23z m23 -61 c2 -15 0 -26 -6 -26 -6 0 -8 -5 -5 -10 4
-6 -5 -5 -20 2 -22 10 -23 13 -10 20 8 5 19 7 24 4 4 -3 6 7 3 22 -3 15 -2 24
2 21 4 -4 9 -18 12 -33z m-36 10 c0 -11 -19 -15 -25 -6 -3 5 1 10 9 10 9 0 16
-2 16 -4z m-38 -43 c-10 -4 -10 -8 -1 -19 6 -8 7 -14 3 -14 -5 0 -15 9 -22 20
-11 18 -10 20 10 19 13 0 17 -3 10 -6z m54 -31 c-14 -14 -35 -9 -33 8 1 15 5
17 20 8 10 -5 16 -12 13 -16z m-103 -62 c3 -11 1 -18 -4 -14 -5 3 -9 12 -9 20
0 20 7 17 13 -6z m-18 -60 c-3 -5 -12 -10 -18 -10 -7 0 -6 4 3 10 19 12 23 12
15 0z m65 -10 c0 -5 -7 -10 -16 -10 -8 0 -12 -4 -9 -10 3 -5 1 -10 -4 -10 -6
0 -11 5 -11 10 0 6 -5 10 -11 10 -5 0 -7 -5 -3 -12 5 -7 3 -8 -5 -3 -16 9 -3
22 29 28 14 2 26 5 28 6 1 0 2 -3 2 -9z m-31 -46 c4 3 8 0 8 -7 0 -7 -8 -13
-18 -13 -10 0 -15 4 -13 8 3 4 -7 8 -21 8 -15 0 -24 -4 -20 -10 4 -6 11 -7 17
-4 6 4 9 3 5 -2 -3 -5 1 -17 8 -27 11 -15 13 -16 19 -2 3 8 11 15 18 15 10 0
10 -2 0 -9 -8 -4 -13 -11 -12 -15 1 -4 -10 -18 -23 -30 l-25 -23 -5 24 c-5 25
8 42 16 21 4 -9 6 -7 6 3 1 9 -8 24 -20 35 -19 17 -19 19 -3 31 12 9 22 9 36
2 10 -5 22 -8 27 -5z m-89 -83 c0 -6 -5 -13 -12 -17 -6 -4 -8 -3 -4 4 3 5 0
13 -6 15 -8 3 -6 6 5 6 9 1 17 -3 17 -8z m70 -44 c0 -5 -4 -5 -10 -2 -5 3 -10
14 -10 23 0 15 2 15 10 2 5 -8 10 -19 10 -23z m-50 -27 c0 -5 -7 -7 -15 -4 -8
4 -15 8 -15 10 0 2 7 4 15 4 8 0 15 -4 15 -10z m-48 -28 c3 -11 0 -19 -8 -19
-7 0 -10 5 -7 10 3 5 -1 13 -8 18 -11 7 -11 9 2 9 9 0 19 -8 21 -18z m59 1 c5
-5 -3 -8 -16 -8 -14 0 -27 5 -29 12 -5 13 32 9 45 -4z m-5 -41 c-8 -8 -19 -11
-25 -8 -20 13 -12 26 14 24 21 -2 23 -4 11 -16z m-50 -7 c-3 -8 -1 -15 4 -15
5 0 7 -6 4 -13 -2 -7 -14 -13 -25 -13 -16 0 -18 2 -6 11 14 10 17 16 17 35 0
6 3 10 6 10 3 0 4 -7 0 -15z m14 -80 c0 -16 -6 -25 -15 -25 -18 0 -20 16 -2
24 6 2 1 3 -13 2 -14 -2 -25 -8 -25 -14 0 -23 -13 -21 -17 2 -3 14 -1 23 3 20
5 -3 17 0 26 5 29 17 43 12 43 -14z m-100 -25 c0 -5 -2 -10 -4 -10 -3 0 -8 5
-11 10 -3 6 -1 10 4 10 6 0 11 -4 11 -10z m54 -33 c3 3 6 2 6 -4 0 -6 -7 -13
-15 -17 -8 -3 -14 -2 -14 2 3 18 -2 22 -20 13 -26 -14 -35 -1 -13 19 16 16 18
16 33 -1 9 -10 19 -16 23 -12z m23 -9 c-3 -7 -5 -2 -5 12 0 14 2 19 5 13 2 -7
2 -19 0 -25z"/>
<path d="M2179 7724 c-92 -69 -188 -102 -318 -111 -119 -8 -131 -17 -131 -105
0 -132 22 -397 39 -483 33 -164 91 -245 226 -319 39 -21 107 -61 152 -89 l83
-49 92 55 c51 30 125 73 164 95 71 41 131 97 157 149 46 89 73 263 83 529 l7
182 -24 15 c-14 9 -60 17 -114 20 -107 6 -197 36 -288 96 -35 22 -70 41 -78
41 -8 0 -31 -12 -50 -26z m281 -208 c38 -9 87 -16 109 -16 l41 0 0 -104 c0
-130 -15 -290 -36 -378 -24 -101 -59 -148 -146 -199 -40 -23 -100 -59 -133
-79 l-60 -36 -120 67 c-66 38 -136 83 -156 102 -67 63 -101 222 -103 476 l-1
146 65 7 c85 9 187 43 253 82 l52 32 83 -42 c46 -24 114 -50 152 -58z"/>
<path d="M12590 8010 c0 -13 7 -20 20 -20 13 0 20 7 20 20 0 13 -7 20 -20 20
-13 0 -20 -7 -20 -20z"/>
<path d="M12775 7920 c-17 -18 -17 -20 -1 -20 9 0 19 7 23 15 9 25 -2 27 -22
5z"/>
<path d="M13036 7825 c-3 -8 -1 -15 4 -15 6 0 10 7 10 15 0 8 -2 15 -4 15 -2
0 -6 -7 -10 -15z"/>
<path d="M7236 7034 c-24 -24 -20 -61 9 -80 56 -36 155 7 155 68 l0 28 -74 0
c-54 0 -79 -4 -90 -16z"/>
<path d="M8274 7231 c-25 -11 -64 -58 -64 -77 0 -11 24 -14 115 -14 129 0 137
5 87 61 -21 24 -38 32 -72 35 -25 2 -55 0 -66 -5z"/>
<path d="M13850 6780 c-12 -23 -6 -40 15 -40 16 0 29 35 20 50 -10 16 -23 12
-35 -10z"/>
<path d="M15024 6345 c-4 -8 -3 -22 0 -31 5 -13 9 -14 21 -4 8 7 15 21 15 31
0 23 -28 25 -36 4z"/>
<path d="M17047 6313 c-9 -27 -17 -53 -17 -59 0 -9 130 -64 151 -64 10 0 41
90 36 104 -3 7 -34 23 -69 36 -34 12 -68 24 -73 27 -6 2 -19 -18 -28 -44z"/>
<path d="M15250 6280 c0 -5 5 -10 11 -10 5 0 7 5 4 10 -3 6 -8 10 -11 10 -2 0
-4 -4 -4 -10z"/>
<path d="M15230 6240 c0 -14 15 -19 29 -11 9 6 7 10 -8 14 -12 3 -21 1 -21 -3z"/>
<path d="M15580 6140 c-6 -11 -8 -25 -5 -30 11 -17 32 -11 38 12 11 39 -14 53
-33 18z"/>
<path d="M15755 6090 c3 -5 11 -10 16 -10 6 0 7 5 4 10 -3 6 -11 10 -16 10 -6
0 -7 -4 -4 -10z"/>
<path d="M15740 6050 c0 -5 10 -10 23 -10 18 0 19 2 7 10 -19 13 -30 13 -30 0z"/>
<path d="M17560 5185 c0 -10 242 -295 250 -295 4 0 48 44 98 99 l91 98 -212
52 c-219 53 -227 55 -227 46z"/>
<path d="M17530 5157 c0 -8 211 -590 219 -604 4 -8 13 41 20 114 6 70 14 140
17 154 4 21 -17 51 -126 183 -71 87 -130 156 -130 153z"/>
<path d="M17989 5023 c-112 -119 -112 -116 7 -55 l108 55 -30 23 c-16 13 -31
24 -34 24 -3 0 -26 -21 -51 -47z"/>
<path d="M17950 4904 c-69 -36 -126 -66 -126 -67 -3 -3 -32 -292 -30 -294 1
-2 29 37 62 85 198 287 235 342 227 342 -4 0 -64 -30 -133 -66z"/>
<path d="M6914 2583 c3 -10 19 -92 36 -183 17 -91 33 -174 36 -185 4 -15 -4
-25 -28 -40 -18 -10 -37 -23 -43 -27 -41 -34 -89 -68 -94 -68 -5 0 -19 -11
-86 -69 -12 -9 -29 -20 -39 -24 -10 -4 -16 -12 -14 -18 4 -11 359 -139 386
-139 7 0 19 6 26 13 8 6 26 23 42 36 51 43 167 145 211 186 l43 40 -48 50
c-26 28 -69 75 -97 105 -27 30 -98 107 -156 170 -59 63 -118 127 -131 143 -29
31 -52 36 -44 10z"/>
<path d="M7340 1977 c-86 -78 -185 -164 -211 -182 -49 -35 -52 -49 -29 -170
28 -149 29 -150 45 -134 11 11 172 352 231 487 18 40 9 40 -36 -1z"/>
<path d="M18405 2350 c-3 -5 -1 -10 4 -10 6 0 11 5 11 10 0 6 -2 10 -4 10 -3
0 -8 -4 -11 -10z"/>
<path d="M16465 1473 c-27 -8 -54 -18 -59 -23 -9 -9 34 -140 46 -140 6 0 23
42 52 130 8 24 14 45 13 46 -1 1 -24 -5 -52 -13z"/>
<path d="M17895 1090 c4 -6 11 -8 16 -5 14 9 11 15 -7 15 -8 0 -12 -5 -9 -10z"/>
<path d="M18760 7046 c0 -2 8 -10 18 -17 15 -13 16 -12 3 4 -13 16 -21 21 -21
13z"/>
<path d="M18735 7030 c-3 -5 -1 -10 4 -10 6 0 11 5 11 10 0 6 -2 10 -4 10 -3
0 -8 -4 -11 -10z"/>
<path d="M18573 7023 c-15 -5 -18 -33 -4 -33 13 0 33 28 24 33 -4 2 -14 2 -20
0z"/>
<path d="M18730 6995 c0 -8 2 -15 4 -15 2 0 6 7 10 15 3 8 1 15 -4 15 -6 0
-10 -7 -10 -15z"/>
<path d="M18425 6850 c-13 -6 -15 -9 -5 -9 12 -1 13 -3 1 -10 -15 -10 -6 -51
11 -51 7 0 6 5 -1 14 -10 12 -9 20 4 40 10 14 16 26 14 25 -2 0 -13 -4 -24 -9z"/>
<path d="M18545 6850 c-3 -6 1 -7 9 -4 18 7 21 14 7 14 -6 0 -13 -4 -16 -10z"/>
<path d="M18343 6795 c0 -8 4 -12 9 -9 4 3 8 0 8 -6 0 -7 6 -5 15 4 20 19 19
21 -8 24 -15 1 -24 -4 -24 -13z"/>
<path d="M18330 6749 c0 -14 18 -20 26 -8 5 8 8 8 14 -1 5 -9 9 -8 12 2 4 9
-3 14 -23 14 -16 1 -29 -2 -29 -7z"/>
<path d="M18310 6690 c0 -5 7 -7 15 -4 8 4 15 8 15 10 0 2 -7 4 -15 4 -8 0
-15 -4 -15 -10z"/>
<path d="M18328 6453 c6 -2 12 -12 12 -21 0 -15 2 -15 10 -2 9 15 -4 30 -25
29 -5 0 -4 -3 3 -6z"/>
<path d="M18306 6425 c-9 -26 -7 -32 5 -12 6 10 9 21 6 23 -2 3 -7 -2 -11 -11z"/>
<path d="M18323 6375 c0 -8 4 -12 9 -9 5 3 6 10 3 15 -9 13 -12 11 -12 -6z"/>
<path d="M18265 6120 c-3 -5 -1 -10 4 -10 6 0 11 5 11 10 0 6 -2 10 -4 10 -3
0 -8 -4 -11 -10z"/>
<path d="M13470 5955 c-20 -22 -21 -25 -6 -31 10 -4 24 1 35 10 23 21 54 20
74 -2 36 -40 14 -68 -105 -132 -43 -23 -78 -48 -78 -55 0 -10 144 -75 166 -75
2 0 4 8 4 18 0 12 -17 23 -57 38 l-57 20 83 50 c108 64 125 101 72 155 -39 39
-97 41 -131 4z"/>
<path d="M18253 5935 c0 -8 4 -12 9 -9 5 3 6 10 3 15 -9 13 -12 11 -12 -6z"/>
<path d="M13774 5808 c-28 -56 -33 -73 -22 -79 7 -5 20 -6 28 -3 36 15 47 14
73 -6 51 -41 20 -114 -46 -108 -25 2 -35 10 -47 35 -20 42 -56 47 -45 6 9 -37
24 -53 64 -70 63 -27 126 10 137 79 5 27 1 40 -21 66 -22 26 -34 32 -66 32
l-39 0 17 35 c19 40 30 42 91 18 32 -12 46 -13 54 -5 15 15 16 14 -69 45 l-73
27 -36 -72z"/>
<path d="M14021 5755 c-34 -29 -71 -118 -71 -171 0 -50 45 -94 95 -94 48 0 85
37 113 113 25 67 26 73 11 116 -21 60 -97 79 -148 36z m110 -38 c23 -43 -21
-165 -67 -186 -40 -18 -74 8 -74 57 0 50 43 140 72 151 30 11 56 3 69 -22z"/>
<path d="M13596 5650 c-20 -31 -22 -39 -11 -44 9 -3 25 8 40 28 29 38 30 42
11 49 -9 4 -24 -9 -40 -33z"/>
<path d="M14249 5663 c-65 -55 -92 -180 -49 -223 44 -44 110 -49 144 -11 27
30 35 74 21 109 -17 39 -48 56 -91 49 -19 -3 -34 -2 -34 3 0 20 53 70 75 70
26 0 55 -24 55 -45 0 -11 20 -25 36 -25 15 0 -1 47 -25 71 -39 39 -87 39 -132
2z m77 -129 c16 -23 16 -28 1 -60 -14 -28 -22 -34 -47 -34 -29 0 -70 29 -70
51 0 15 21 53 34 61 25 17 66 8 82 -18z"/>
<path d="M14522 5508 c-18 -51 -32 -107 -32 -124 0 -43 33 -81 81 -94 33 -9
46 -8 77 7 33 16 40 27 76 122 30 82 36 105 25 112 -7 4 -16 6 -20 4 -3 -3
-21 -45 -39 -95 -42 -116 -80 -145 -138 -104 -30 21 -28 56 8 156 17 46 28 88
25 95 -12 33 -33 6 -63 -79z"/>
<path d="M14822 5480 c-27 -11 -45 -55 -37 -87 3 -13 27 -39 54 -58 27 -20 52
-42 55 -51 10 -27 -12 -54 -45 -54 -42 0 -65 15 -77 50 -12 34 -42 41 -42 9 0
-35 20 -60 63 -80 58 -26 84 -24 118 10 44 44 38 67 -33 133 -53 49 -61 61
-52 76 25 40 114 18 114 -28 0 -23 29 -34 37 -14 21 56 -87 123 -155 94z"/>
<path d="M15005 5290 c-28 -76 -44 -134 -39 -139 15 -13 105 -41 134 -41 61 0
120 83 120 170 0 60 -24 89 -93 113 -23 8 -49 18 -58 21 -13 6 -25 -18 -64
-124z m136 57 c44 -29 50 -78 19 -143 -24 -49 -48 -60 -106 -50 -54 11 -54 10
15 189 13 33 28 34 72 4z"/>
<path d="M12310 4886 c0 -3 -11 -35 -25 -71 l-25 -66 37 -15 c60 -25 107 1 83
46 -7 13 -6 19 5 24 19 7 20 50 2 65 -16 12 -77 27 -77 17z m54 -22 c20 -8 21
-43 2 -50 -8 -3 -24 -1 -35 6 -17 9 -19 15 -11 30 11 21 19 24 44 14z m-7 -81
c26 -32 -18 -58 -56 -34 -12 8 -13 14 -3 35 12 27 36 27 59 -1z"/>
<path d="M12455 4840 c-3 -5 1 -10 10 -10 9 0 13 5 10 10 -3 6 -8 10 -10 10
-2 0 -7 -4 -10 -10z"/>
<path d="M12427 4768 c-8 -24 -18 -51 -22 -60 -4 -11 -3 -18 4 -18 11 0 36 52
47 97 11 41 -14 25 -29 -19z"/>
<path d="M12502 4794 c-7 -8 -11 -18 -8 -23 3 -5 -1 -25 -9 -44 -16 -38 -11
-67 10 -67 7 0 11 9 8 23 -6 31 13 77 33 77 13 0 14 3 4 15 -6 8 -9 19 -5 25
10 16 -18 11 -33 -6z"/>
<path d="M12568 4733 c-21 -24 -30 -56 -22 -77 8 -21 48 -38 69 -30 25 10 17
25 -9 18 -33 -8 -50 22 -33 57 16 30 44 36 62 12 12 -15 14 -15 15 -2 0 38
-55 53 -82 22z"/>
<path d="M12693 4695 c-31 -21 -40 -71 -17 -96 27 -30 61 -24 84 13 21 35 18
65 -8 86 -21 16 -33 15 -59 -3z m55 -38 c4 -35 -14 -59 -42 -55 -27 4 -32 32
-11 64 21 32 49 28 53 -9z"/>
<path d="M12835 4700 c-3 -5 1 -10 10 -10 9 0 13 5 10 10 -3 6 -8 10 -10 10
-2 0 -7 -4 -10 -10z"/>
<path d="M12802 4610 c-22 -62 -11 -85 13 -27 20 49 28 87 18 87 -5 0 -19 -27
-31 -60z"/>
<path d="M12873 4622 c-3 -9 -12 -32 -19 -51 -17 -41 -17 -44 -2 -39 6 2 17
19 23 38 14 42 38 59 58 41 14 -11 14 -17 0 -57 -8 -25 -12 -48 -9 -52 9 -8
20 10 36 59 16 47 5 63 -48 73 -26 4 -34 2 -39 -12z"/>
<path d="M18680 4519 c0 -5 5 -7 10 -4 6 3 10 8 10 11 0 2 -4 4 -10 4 -5 0
-10 -5 -10 -11z"/>
<path d="M11292 3979 c-11 -24 -23 -55 -27 -69 -13 -44 -25 -50 -89 -50 -96 0
-99 -7 -31 -89 38 -48 63 -70 74 -67 9 2 49 10 89 16 39 7 72 15 72 18 0 23
-54 269 -61 276 -5 5 -16 -10 -27 -35z"/>
<path d="M15175 3810 c-3 -5 3 -10 14 -10 l21 0 -20 -52 c-21 -56 -25 -78 -12
-78 7 0 52 119 52 139 0 14 -47 14 -55 1z"/>
<path d="M11876 3709 c-14 -39 -26 -74 -26 -78 0 -10 80 -34 88 -27 3 3 -11
13 -31 21 -32 13 -35 18 -28 37 5 13 13 22 18 21 4 -1 22 -4 38 -8 29 -6 29
-6 11 9 -11 9 -26 16 -33 16 -15 0 -17 19 -4 39 9 13 24 12 64 -4 9 -4 17 -3
17 3 0 6 -20 17 -44 25 l-44 15 -26 -69z"/>
<path d="M15317 3768 c-24 -19 -49 -87 -42 -115 8 -32 45 -49 75 -33 24 13 50
66 50 104 0 14 -9 31 -22 40 -27 19 -39 20 -61 4z m56 -29 c13 -20 3 -60 -22
-90 -44 -53 -75 25 -34 87 17 27 40 28 56 3z"/>
<path d="M15447 3718 c-27 -21 -48 -94 -35 -122 21 -47 75 -40 103 14 38 74
-10 151 -68 108z m57 -56 c-1 -69 -61 -111 -76 -54 -3 11 3 39 13 62 15 33 23
41 41 38 20 -3 23 -9 22 -46z"/>
<path d="M12016 3705 c-10 -7 -15 -18 -12 -23 3 -6 -1 -29 -9 -52 -16 -44 -13
-60 10 -60 8 0 11 7 8 20 -7 27 16 80 34 80 12 0 13 3 3 15 -6 8 -9 19 -5 25
9 14 -7 12 -29 -5z"/>
<path d="M12077 3633 c-15 -42 -24 -79 -21 -82 4 -3 8 -1 10 4 18 47 42 80 59
80 16 0 20 -6 18 -30 -1 -16 -4 -42 -8 -57 -12 -47 11 -32 25 16 16 60 11 80
-23 84 -26 3 -28 6 -22 33 13 58 -12 27 -38 -48z"/>
<path d="M11249 3683 l-77 -15 -12 -43 c-7 -24 -11 -48 -9 -53 3 -9 165 91
194 119 11 11 1 10 -96 -8z"/>
<path d="M15570 3650 c-25 -49 -25 -54 2 -47 44 12 76 -31 46 -61 -19 -19 -44
-14 -62 11 -15 20 -16 20 -14 2 4 -24 42 -45 69 -38 50 13 49 90 -1 100 -32 6
-35 10 -21 32 8 12 16 13 45 4 49 -15 46 0 -4 20 l-40 16 -20 -39z"/>
<path d="M15210 3655 c-20 -24 -6 -28 15 -5 10 11 13 20 8 20 -6 0 -16 -7 -23
-15z"/>
<path d="M15713 3623 c-26 -10 -12 -22 18 -16 20 4 34 1 39 -7 13 -21 0 -40
-28 -40 -24 0 -24 -1 -9 -18 19 -21 22 -48 7 -57 -17 -10 -46 4 -58 28 -11 22
-11 22 -11 1 -1 -30 22 -46 61 -42 31 3 33 5 32 41 -1 20 2 37 7 37 5 0 13 9
19 21 21 37 -30 72 -77 52z"/>
<path d="M12211 3596 c-7 -8 -15 -30 -18 -49 -4 -30 -1 -38 21 -52 14 -10 33
-15 41 -11 24 9 17 22 -12 21 -22 0 -29 5 -31 24 -3 21 -1 23 25 16 48 -13 58
-11 61 11 6 43 -60 73 -87 40z m66 -21 c3 -9 3 -18 1 -21 -9 -9 -59 16 -53 26
10 16 45 12 52 -5z"/>
<path d="M15835 3570 c-3 -5 1 -10 9 -10 21 0 20 -14 -4 -78 -13 -35 -16 -52
-9 -50 12 4 57 110 58 136 1 14 -45 16 -54 2z"/>
<path d="M12326 3521 c-24 -67 -14 -89 12 -28 15 34 27 47 42 47 11 0 20 5 20
10 0 6 -6 10 -14 10 -8 0 -21 2 -28 5 -9 4 -20 -10 -32 -44z"/>
<path d="M12421 3522 c-29 -24 -37 -74 -16 -95 19 -20 60 -22 71 -5 5 7 0 9
-14 6 -28 -8 -57 14 -49 36 6 15 10 15 41 2 38 -16 46 -13 46 19 0 40 -49 63
-79 37z m57 -25 c2 -11 -3 -17 -17 -17 -23 0 -35 15 -26 31 10 15 39 6 43 -14z"/>
<path d="M15960 3478 c-12 -35 -25 -69 -27 -75 -6 -14 39 -35 76 -35 31 -1 54
28 41 52 -7 13 -5 21 5 30 33 27 9 66 -51 84 -19 6 -24 -1 -44 -56z m88 5 c2
-11 -3 -23 -10 -25 -16 -7 -61 9 -55 19 2 5 7 16 10 25 8 24 51 9 55 -19z
m-34 -46 c28 -21 16 -52 -18 -50 -36 3 -40 7 -32 38 7 28 23 32 50 12z"/>
<path d="M18786 3517 c3 -10 9 -15 12 -12 3 3 0 11 -7 18 -10 9 -11 8 -5 -6z"/>
<path d="M12528 3451 c-17 -55 -9 -81 25 -81 13 0 28 -5 34 -11 8 -8 17 5 32
46 12 32 19 60 15 64 -4 3 -9 2 -11 -4 -23 -56 -41 -80 -58 -80 -16 0 -20 6
-18 30 1 17 4 42 8 58 12 47 -10 29 -27 -22z"/>
<path d="M16105 3480 c3 -5 13 -10 21 -10 19 0 18 -20 -6 -80 -22 -56 -24 -70
-11 -70 5 0 19 30 32 66 21 59 25 65 46 59 40 -10 25 12 -20 29 -49 18 -71 21
-62 6z"/>
<path d="M12665 3414 c-23 -55 -29 -84 -17 -84 6 0 17 19 24 43 11 30 21 43
36 45 30 5 36 -17 17 -62 -11 -26 -13 -42 -6 -49 6 -6 14 5 22 32 16 52 30 65
54 47 17 -13 18 -15 1 -56 -9 -23 -15 -45 -12 -47 10 -11 24 9 36 52 14 50 4
75 -32 75 -10 0 -30 7 -44 16 -13 9 -27 14 -31 10 -3 -3 -12 -1 -19 5 -10 8
-17 2 -29 -27z"/>
<path d="M16235 3416 c-43 -39 -49 -114 -12 -138 19 -12 64 -9 76 5 14 18 2
30 -15 16 -7 -6 -23 -9 -36 -7 -35 5 -38 69 -4 103 29 29 52 24 69 -14 11 -26
11 -26 15 -3 8 49 -53 75 -93 38z"/>
<path d="M18650 2830 c-8 -5 -12 -12 -9 -15 4 -3 12 1 19 10 14 17 11 19 -10
5z"/>
<path d="M14855 2660 c-3 -5 3 -10 14 -10 20 0 20 -1 -3 -65 -13 -36 -20 -68
-15 -71 5 -3 12 3 16 13 3 10 14 40 25 66 10 26 18 54 18 62 0 17 -45 21 -55
5z"/>
<path d="M11513 2643 c-3 -10 -14 -40 -25 -66 -10 -26 -18 -51 -18 -56 0 -12
48 -31 80 -31 23 0 31 5 36 24 3 14 3 30 -1 36 -3 5 1 17 9 26 24 24 19 42
-16 64 -41 25 -57 25 -65 3z m62 -17 c24 -18 13 -46 -19 -46 -30 0 -40 13 -31
40 7 23 24 25 50 6z m-24 -66 c10 -6 19 -20 19 -30 0 -15 -7 -20 -27 -20 -40
0 -52 11 -42 38 9 24 21 27 50 12z"/>
<path d="M14981 2595 c-29 -38 -36 -81 -16 -111 33 -51 99 -11 112 69 7 45 -9
67 -47 67 -19 0 -36 -9 -49 -25z m76 -42 c-7 -41 -32 -73 -58 -73 -26 0 -32
33 -14 76 19 46 33 56 58 42 15 -8 18 -17 14 -45z"/>
<path d="M11660 2600 c0 -5 5 -10 10 -10 6 0 10 5 10 10 0 6 -4 10 -10 10 -5
0 -10 -4 -10 -10z"/>
<path d="M15120 2560 c-11 -11 -20 -28 -20 -38 0 -27 35 -56 60 -49 25 6 26
-5 2 -26 -25 -23 -53 -21 -59 3 -6 23 -23 27 -23 5 0 -22 45 -48 70 -40 53 17
79 120 38 149 -30 21 -44 20 -68 -4z m58 -9 c8 -4 12 -19 10 -32 -2 -19 -9
-24 -33 -24 -33 0 -45 25 -25 50 14 17 29 19 48 6z"/>
<path d="M11627 2519 c-10 -28 -16 -53 -13 -57 9 -8 12 -2 35 56 15 37 17 52
8 52 -7 0 -20 -23 -30 -51z"/>
<path d="M11687 2500 c-20 -55 -20 -60 -8 -60 5 0 15 15 21 34 15 47 32 59 56
42 18 -14 18 -16 2 -60 -13 -36 -14 -46 -4 -46 12 0 36 61 36 92 0 21 -18 34
-55 41 -29 5 -32 3 -48 -43z"/>
<path d="M15249 2514 c-11 -14 -9 -15 24 -9 30 6 38 4 44 -10 7 -21 -21 -47
-43 -38 -21 8 -17 -7 9 -27 20 -17 21 -20 6 -35 -19 -20 -59 -12 -59 11 0 8
-4 14 -10 14 -14 0 -12 -26 3 -38 46 -36 103 -13 92 39 -4 19 -1 28 9 32 23 9
19 43 -6 61 -29 20 -52 20 -69 0z"/>
<path d="M18509 2520 c0 -3 -2 -13 -4 -23 -2 -9 1 -15 6 -11 5 3 7 10 4 15 -4
5 -1 9 5 9 8 0 10 -9 5 -27 -8 -33 -4 -29 18 14 15 32 15 33 -9 31 -13 -1 -24
-5 -25 -8z"/>
<path d="M14891 2506 c-8 -9 -11 -19 -7 -23 9 -9 29 13 24 27 -2 8 -8 7 -17
-4z"/>
<path d="M11843 2493 c-23 -9 -14 -22 14 -20 20 1 28 -3 31 -17 4 -16 0 -18
-28 -12 -37 7 -60 -7 -60 -36 0 -18 12 -27 42 -32 7 -1 18 -5 25 -9 14 -9 19
-2 38 53 13 38 13 42 -5 60 -20 20 -34 23 -57 13z m32 -83 c0 -18 -33 -26 -47
-12 -6 6 -7 15 -3 22 10 16 50 8 50 -10z"/>
<path d="M15391 2430 c-28 -22 -51 -45 -51 -50 0 -5 16 -14 35 -21 27 -10 34
-17 29 -31 -3 -10 -1 -18 5 -18 6 0 11 5 11 10 0 6 7 10 16 10 10 0 13 6 10
18 -4 10 0 38 9 61 25 73 9 78 -64 21z m39 -34 c-7 -20 -16 -27 -32 -24 -33 5
-31 21 5 46 35 25 43 19 27 -22z"/>
<path d="M11940 2404 c-11 -31 -18 -59 -14 -63 4 -3 8 -1 10 4 18 47 42 80 59
80 16 0 20 -6 19 -30 0 -16 -4 -42 -8 -57 -14 -50 9 -30 29 24 l18 51 -23 19
c-13 10 -29 17 -37 14 -7 -3 -13 -1 -13 4 0 28 -21 3 -40 -46z"/>
<path d="M15538 2347 l-26 -75 41 -16 c23 -9 45 -12 49 -8 4 4 -8 14 -27 21
-30 11 -35 16 -29 34 9 30 9 31 43 19 39 -14 49 -2 11 14 -30 13 -37 28 -21
53 7 10 13 11 30 1 12 -6 30 -9 39 -7 13 3 10 7 -11 15 -70 29 -70 29 -99 -51z"/>
<path d="M12082 2387 c-18 -22 -26 -75 -13 -91 18 -21 48 -26 68 -10 17 13 16
14 -11 12 -38 -4 -54 21 -38 56 13 30 46 35 61 9 5 -10 13 -14 17 -10 14 14
-12 42 -43 45 -17 2 -35 -3 -41 -11z"/>
<path d="M15689 2362 l24 -19 -18 -54 c-10 -30 -20 -60 -23 -66 -2 -7 0 -13 6
-13 6 0 21 28 34 63 22 56 27 62 51 59 15 -1 27 0 27 2 0 7 -66 35 -99 42
l-26 6 24 -20z"/>
<path d="M12206 2347 c-9 -7 -20 -32 -23 -54 -5 -38 -3 -43 20 -54 26 -12 57
-7 57 9 0 4 -12 8 -27 7 -22 0 -29 5 -31 23 -3 21 -1 23 20 16 60 -19 89 6 52
47 -20 22 -43 24 -68 6z m62 -31 c3 -16 0 -18 -24 -12 -35 9 -38 12 -29 26 11
17 49 7 53 -14z"/>
<path d="M12381 2303 c-43 -54 -40 -113 8 -133 30 -12 71 -1 71 20 0 13 -6 13
-30 -2 -31 -20 -55 1 -54 46 2 67 66 101 89 49 11 -26 25 -30 25 -8 0 23 -37
55 -64 55 -15 0 -33 -11 -45 -27z"/>
<path d="M15805 2318 c-2 -7 -13 -38 -25 -68 -23 -62 -24 -70 -11 -70 5 0 14
14 20 30 11 33 17 35 56 20 25 -9 26 -13 20 -53 -10 -58 7 -39 39 46 19 50 22
67 12 67 -8 0 -17 -11 -20 -25 -7 -27 -20 -30 -61 -15 -26 10 -27 16 -8 68 3
6 0 12 -6 12 -7 0 -14 -6 -16 -12z"/>
<path d="M12665 2241 c-3 -5 -1 -12 5 -16 5 -3 10 1 10 9 0 18 -6 21 -15 7z"/>
<path d="M12506 2218 c-19 -27 -21 -69 -4 -86 20 -20 65 -14 82 10 19 27 21
69 4 86 -20 20 -65 14 -82 -10z m58 6 c22 -8 20 -47 -3 -75 -16 -20 -21 -21
-35 -10 -20 17 -20 40 0 69 17 25 16 24 38 16z"/>
<path d="M12636 2168 c-24 -57 -28 -78 -17 -78 6 0 11 1 11 3 0 1 9 26 20 55
22 56 8 75 -14 20z"/>
<path d="M12695 2146 c-21 -53 -27 -76 -17 -76 5 0 16 18 25 40 11 29 21 40
37 40 29 0 35 -23 16 -70 -12 -31 -13 -40 -3 -40 7 0 20 20 29 44 14 38 14 47
2 64 -7 11 -28 22 -45 24 -27 4 -33 1 -44 -26z"/>
<path d="M10295 1890 c-58 -18 -140 -76 -177 -125 -183 -242 3 -587 303 -562
161 14 285 126 318 289 30 145 -54 309 -194 377 -39 20 -69 26 -135 28 -47 1
-98 -2 -115 -7z m172 -122 c18 -7 33 -16 33 -20 0 -5 -16 -32 -35 -61 -37 -55
-34 -65 17 -48 17 6 40 11 50 11 18 0 18 -1 2 -29 -14 -23 -28 -31 -77 -42
-61 -13 -79 -25 -109 -77 l-18 -30 83 -29 c45 -17 83 -37 84 -44 2 -8 -6 -25
-16 -38 l-19 -25 -131 49 c-72 26 -131 50 -131 52 0 2 11 21 25 41 25 36 25
37 5 40 -24 4 -24 6 -4 37 8 13 28 26 43 30 21 4 40 27 85 100 33 52 64 95 69
95 6 0 26 -5 44 -12z"/>
<path d="M18266 1834 c-20 -19 -20 -25 -2 -18 8 3 17 12 20 20 7 18 1 18 -18
-2z"/>
<path d="M18234 1737 c-5 -15 -34 -19 -34 -5 0 4 -4 8 -9 8 -5 0 -8 -8 -6 -17
2 -10 4 -20 4 -22 1 -3 6 0 13 7 9 9 15 7 25 -6 8 -9 12 -11 8 -5 -3 7 -1 22
5 33 6 11 8 20 5 20 -3 0 -8 -6 -11 -13z"/>
<path d="M14265 1589 c-10 -16 3 -23 18 -10 21 17 49 3 45 -23 -2 -13 -22 -32
-55 -51 -29 -16 -52 -33 -53 -37 0 -10 89 -42 97 -34 4 3 -8 12 -25 18 -18 7
-32 15 -32 18 0 3 20 17 45 32 47 28 59 60 33 86 -15 15 -64 16 -73 1z"/>
<path d="M14407 1549 c-62 -36 -60 -159 3 -159 59 0 97 114 50 152 -25 21 -29
21 -53 7z m37 -15 c38 -15 4 -128 -37 -122 -19 3 -22 9 -21 45 0 26 8 51 19
63 21 23 18 22 39 14z"/>
<path d="M18170 1544 c0 -8 5 -12 10 -9 6 4 8 11 5 16 -9 14 -15 11 -15 -7z"/>
<path d="M11046 1469 c-14 -38 -26 -72 -26 -75 0 -6 65 -34 80 -34 22 0 8 17
-24 28 l-34 13 18 47 c28 75 32 92 22 92 -5 0 -21 -32 -36 -71z"/>
<path d="M11190 1490 c0 -5 5 -10 10 -10 6 0 10 5 10 10 0 6 -4 10 -10 10 -5
0 -10 -4 -10 -10z"/>
<path d="M14571 1468 c-5 -13 -7 -27 -4 -31 2 -4 -5 -16 -18 -26 -30 -24 -20
-64 20 -81 41 -17 73 1 69 39 -1 16 2 35 8 42 23 30 24 39 4 59 -27 27 -68 26
-79 -2z m67 -25 c3 -19 -1 -23 -22 -23 -28 0 -41 14 -32 36 9 24 50 13 54 -13z
m-20 -76 c-4 -28 -46 -30 -62 -4 -9 15 -7 21 8 32 25 19 58 2 54 -28z"/>
<path d="M11167 1429 c-20 -44 -31 -89 -23 -89 11 0 47 92 43 109 -3 11 -9 4
-20 -20z"/>
<path d="M11240 1447 c-23 -19 -32 -128 -11 -135 10 -3 12 0 7 13 -10 26 12
85 32 85 12 0 13 3 5 11 -6 6 -9 18 -6 25 6 17 -7 18 -27 1z"/>
<path d="M14713 1434 c-27 -12 -11 -22 23 -17 33 5 36 4 32 -18 -2 -15 -12
-25 -27 -29 -21 -5 -22 -7 -7 -19 18 -15 21 -46 6 -56 -17 -10 -49 5 -55 27
-5 14 -10 17 -18 9 -20 -20 22 -52 62 -49 34 3 36 5 36 38 0 20 7 42 18 53 16
16 17 21 4 40 -14 21 -49 31 -74 21z"/>
<path d="M11296 1378 c-24 -34 -20 -75 8 -93 13 -8 31 -13 40 -9 26 10 19 23
-11 21 -23 -2 -29 3 -31 22 -3 21 -1 23 25 16 48 -13 58 -11 61 11 7 49 -64
73 -92 32z m74 -23 c0 -18 -1 -18 -35 -5 -22 9 -25 13 -15 25 14 17 50 3 50
-20z"/>
<path d="M14465 1370 c-10 -11 -13 -20 -8 -20 13 0 38 29 31 35 -3 3 -13 -4
-23 -15z"/>
<path d="M14848 1344 c-27 -20 -48 -42 -48 -49 0 -7 14 -18 30 -24 21 -7 30
-17 30 -33 1 -21 2 -22 14 -5 7 9 19 17 27 17 10 0 10 3 2 11 -9 9 -7 24 7 59
28 72 11 79 -62 24z m40 -27 c-11 -37 -29 -46 -56 -28 -10 6 -4 16 24 39 21
17 39 30 41 29 1 -2 -3 -20 -9 -40z"/>
<path d="M11420 1333 c-29 -37 -24 -85 11 -97 15 -5 35 -5 45 -1 16 7 13 9
-16 14 -41 7 -50 30 -26 66 19 29 41 32 55 8 5 -10 13 -14 18 -10 9 10 -32 47
-52 47 -8 0 -23 -12 -35 -27z"/>
<path d="M14965 1330 c-3 -5 3 -10 14 -10 21 0 21 -1 -4 -65 -16 -44 -20 -65
-12 -65 11 0 57 110 57 138 0 14 -46 16 -55 2z"/>
<path d="M11690 1306 c0 -9 5 -16 10 -16 6 0 10 4 10 9 0 6 -4 13 -10 16 -5 3
-10 -1 -10 -9z"/>
<path d="M11536 1288 c-45 -64 16 -137 70 -83 26 26 32 73 12 93 -20 20 -65
14 -82 -10z m74 -27 c0 -29 -32 -63 -53 -56 -22 9 -22 52 -1 76 20 22 54 9 54
-20z"/>
<path d="M15088 1228 c-15 -40 -24 -76 -19 -81 5 -5 27 -11 50 -14 50 -7 75
10 66 44 -3 14 1 33 9 45 8 11 12 27 9 35 -5 12 -63 43 -82 43 -3 0 -19 -33
-33 -72z m73 42 c10 -6 19 -20 19 -30 0 -15 -7 -20 -29 -20 -36 0 -41 8 -30
38 10 25 13 26 40 12z m-10 -79 c22 -18 23 -21 8 -36 -20 -21 -74 -4 -65 21 3
9 6 20 6 25 0 15 27 10 51 -10z"/>
<path d="M11657 1219 c-10 -28 -16 -53 -13 -57 9 -8 15 1 36 57 15 37 17 51 7
51 -7 0 -20 -23 -30 -51z"/>
<path d="M11715 1194 c-23 -68 -12 -83 14 -20 15 33 26 46 41 46 29 0 35 -25
17 -71 -12 -30 -12 -39 -3 -39 12 0 36 61 36 92 0 21 -18 34 -56 41 -29 6 -31
4 -49 -49z"/>
<path d="M15228 1178 c-16 -41 -24 -76 -19 -81 5 -5 14 8 21 30 27 83 33 84
50 9 9 -39 21 -71 26 -73 6 -2 21 27 35 64 13 37 26 71 27 75 2 4 -1 8 -7 8
-7 0 -14 -8 -18 -17 -3 -10 -13 -34 -21 -53 l-15 -35 -17 69 c-9 39 -21 71
-26 73 -5 2 -21 -29 -36 -69z"/>
<path d="M15402 1173 c-5 -10 -17 -42 -27 -71 -20 -62 -15 -71 42 -79 45 -6
69 13 60 48 -3 12 0 28 9 36 20 21 17 40 -8 57 -41 25 -66 29 -76 9z m55 -18
c27 -19 20 -45 -12 -45 -29 0 -38 13 -30 40 8 24 14 25 42 5z m-12 -69 c26
-19 13 -46 -24 -46 -36 0 -46 13 -31 40 13 23 29 25 55 6z"/>
<path d="M9883 766 c-103 -34 -176 -98 -222 -196 -22 -46 -26 -69 -26 -140 0
-76 4 -93 33 -152 93 -190 323 -253 501 -138 66 43 126 126 146 202 57 214
-97 424 -319 435 -42 2 -88 -3 -113 -11z m184 -148 c113 -43 150 -65 170 -101
31 -56 1 -157 -69 -233 -49 -53 -111 -79 -172 -71 -43 6 -233 72 -249 87 -8 7
29 80 41 80 4 0 52 -16 107 -35 128 -44 160 -39 206 33 52 83 36 113 -89 157
-121 44 -117 39 -90 86 12 21 25 39 29 39 5 0 57 -19 116 -42z m-68 -143 c9
-9 -24 -58 -46 -68 -18 -8 -42 -3 -115 23 -51 18 -97 36 -102 41 -15 13 14 57
43 67 20 7 48 2 120 -25 52 -18 97 -36 100 -38z"/>
<path d="M17720 535 c0 -7 7 -12 15 -12 8 0 12 4 9 8 -2 4 2 9 8 12 7 3 3 4
-9 4 -13 -1 -23 -6 -23 -12z"/>
<path d="M10656 412 c-15 -24 -54 -142 -48 -146 4 -2 24 -9 46 -14 36 -10 40
-9 67 18 29 29 39 79 21 107 -10 17 -80 45 -86 35z m55 -32 c48 -26 -2 -130
-53 -111 -26 10 -27 31 -4 86 16 37 26 41 57 25z"/>
<path d="M14105 390 c-3 -5 3 -10 14 -10 26 0 25 2 1 -60 -22 -55 -24 -70 -12
-70 5 0 19 30 33 67 13 37 26 71 27 75 5 12 -56 10 -63 -2z"/>
<path d="M14204 354 c-18 -15 -18 -15 4 -9 27 8 27 0 2 -65 -22 -55 -24 -70
-12 -70 10 0 62 141 56 152 -8 13 -28 10 -50 -8z"/>
<path d="M10786 289 c-26 -33 -45 -63 -41 -67 3 -4 13 1 20 12 20 27 69 9 73
-27 2 -15 8 -27 13 -27 5 0 9 38 9 85 0 62 -3 85 -12 84 -7 0 -35 -27 -62 -60z
m54 -4 c0 -36 -5 -41 -29 -26 -12 8 -12 13 3 35 22 34 26 33 26 -9z"/>
<path d="M14340 305 c-11 -13 -8 -14 20 -9 21 5 35 3 40 -6 14 -22 1 -38 -56
-70 -30 -16 -54 -32 -54 -35 0 -9 74 -36 90 -32 9 3 3 9 -17 17 -39 14 -35 23
17 50 21 11 42 29 45 41 14 43 -56 79 -85 44z"/>
<path d="M10938 299 c-28 -16 -22 -55 13 -82 37 -29 34 -57 -6 -57 -18 0 -29
8 -37 28 -10 24 -12 25 -16 7 -9 -38 67 -72 96 -43 21 21 13 52 -20 79 -21 18
-29 32 -25 43 9 22 32 20 57 -6 11 -12 23 -18 27 -14 9 9 -42 56 -60 56 -7 0
-20 -5 -29 -11z"/>
<path d="M11065 248 c-2 -7 -13 -38 -25 -68 -23 -62 -24 -70 -11 -70 5 0 15
15 21 34 l11 35 37 -14 c21 -7 36 -18 34 -26 -12 -50 -14 -73 -4 -64 15 16 55
132 49 147 -3 7 -10 -1 -17 -19 -13 -37 -15 -37 -59 -22 -32 11 -33 15 -14 67
3 6 0 12 -6 12 -7 0 -14 -6 -16 -12z"/>
<path d="M14465 216 c-27 -24 -48 -46 -45 -49 3 -2 18 -9 35 -14 18 -6 32 -19
36 -34 5 -21 7 -22 14 -6 4 9 14 17 22 17 12 0 13 3 4 14 -8 10 -7 22 4 49 33
80 5 89 -70 23z m50 -19 c-8 -21 -21 -37 -28 -37 -15 0 -43 18 -37 22 3 2 20
16 39 31 18 15 35 26 37 24 3 -2 -3 -20 -11 -40z"/>
<path d="M14604 214 c-18 -15 -18 -15 6 -10 32 7 53 -6 48 -30 -2 -12 -12 -19
-26 -18 -26 1 -29 -11 -6 -24 22 -12 14 -46 -13 -50 -13 -2 -27 5 -37 19 -19
27 -32 19 -17 -10 14 -25 58 -38 80 -24 9 6 16 24 16 42 0 17 3 31 7 31 12 0
28 38 22 53 -3 8 -16 19 -30 26 -31 14 -26 14 -50 -5z"/>
<path d="M14230 195 c-20 -24 -6 -28 15 -5 10 11 13 20 8 20 -6 0 -16 -7 -23
-15z"/>
<path d="M14756 102 c-14 -37 -26 -72 -26 -79 0 -12 33 -23 65 -22 15 0 12 4
-12 15 l-32 14 24 64 c14 36 21 68 16 71 -5 3 -21 -25 -35 -63z"/>
<path d="M14878 118 c26 -13 27 -26 7 -75 -15 -36 -13 -56 4 -37 5 5 14 26 21
47 10 33 16 38 36 34 44 -8 35 11 -13 27 -54 18 -91 21 -55 4z"/>
<path d="M15009 73 c-18 -5 -54 -62 -44 -71 4 -4 13 2 20 13 39 55 61 58 85
10 14 -29 15 -29 18 -6 6 36 -37 65 -79 54z"/>
</g>
</svg>
