<?xml version="1.0" standalone="no"?>
<!DOCTYPE svg PUBLIC "-//W3C//DTD SVG 20010904//EN"
 "http://www.w3.org/TR/2001/REC-SVG-20010904/DTD/svg10.dtd">
<svg version="1.0" xmlns="http://www.w3.org/2000/svg"
 width="1600.000000pt" height="1134.000000pt" viewBox="0 0 1600.000000 1134.000000"
 preserveAspectRatio="xMidYMid meet">

<g transform="translate(0.000000,1134.000000) scale(0.100000,-0.100000)"
fill="#000000" stroke="none">
<path d="M5253 7808 c-23 -13 -93 -58 -155 -100 -208 -141 -431 -240 -698
-308 -198 -51 -338 -70 -605 -81 -137 -6 -260 -13 -272 -15 -35 -7 -88 -59
-100 -97 -7 -23 -8 -139 -2 -363 33 -1341 147 -1997 416 -2403 103 -155 271
-312 473 -444 47 -30 207 -125 355 -210 149 -85 346 -202 440 -261 151 -95
174 -106 215 -106 50 0 43 -3 278 144 68 42 246 147 395 233 305 174 445 265
561 362 331 278 502 688 590 1411 39 318 69 814 82 1336 7 317 5 332 -65 380
-31 21 -47 24 -131 24 -151 1 -398 17 -520 35 -360 53 -721 191 -985 376 -165
115 -199 126 -272 87z m110 -363 c259 -175 607 -316 949 -384 174 -35 398 -61
519 -61 l82 0 -7 -237 c-35 -1291 -153 -1904 -429 -2233 -117 -139 -250 -236
-607 -440 -118 -67 -289 -167 -379 -221 -90 -55 -167 -99 -172 -99 -6 0 -51
26 -102 59 -51 32 -216 129 -367 216 -314 180 -445 263 -545 346 -335 277
-474 726 -539 1749 -8 124 -17 311 -21 415 -3 105 -8 247 -11 318 l-6 127 82
0 c192 0 534 53 747 115 240 71 480 177 663 294 52 33 98 61 101 61 3 0 22
-11 42 -25z"/>
<path d="M11080 6794 c-81 -22 -137 -53 -181 -102 -55 -58 -72 -104 -72 -182
0 -156 92 -246 343 -335 199 -71 235 -99 235 -186 0 -39 -5 -53 -29 -78 -40
-41 -85 -54 -170 -49 -119 8 -182 53 -193 138 l-6 40 -110 0 -110 0 7 -47 c26
-193 222 -316 479 -300 222 13 350 122 349 297 -1 170 -100 267 -364 355 -162
54 -218 99 -218 174 0 36 42 89 87 107 18 8 60 14 93 14 33 0 75 -6 93 -14 43
-17 85 -68 93 -111 l6 -35 104 0 104 0 0 33 c0 125 -120 252 -272 287 -62 14
-204 11 -268 -6z"/>
<path d="M7790 6710 l0 -90 170 0 171 0 -1 -457 -1 -458 105 -3 106 -3 0 461
0 460 170 0 170 0 0 90 0 90 -445 0 -445 0 0 -90z"/>
<path d="M8820 6251 l0 -551 110 0 110 0 0 205 0 205 94 0 93 0 104 -202 104
-203 118 -3 c64 -1 117 0 117 3 0 4 -54 108 -121 233 -67 126 -116 228 -109
230 36 12 110 74 137 115 58 87 68 235 21 333 -30 65 -103 126 -185 154 -63
22 -86 24 -330 28 l-263 4 0 -551z m506 353 c58 -28 79 -68 79 -151 0 -81 -16
-113 -76 -148 -28 -17 -56 -21 -161 -24 l-128 -3 0 171 0 171 126 0 c96 0 134
-4 160 -16z"/>
<path d="M9802 6388 c3 -402 4 -414 26 -469 62 -156 218 -238 427 -226 205 11
342 120 375 296 6 30 10 222 10 432 l0 379 -110 0 -109 0 -3 -408 -3 -408 -27
-42 c-32 -48 -65 -67 -130 -77 -104 -16 -204 37 -227 120 -7 26 -11 175 -11
428 l0 387 -111 0 -110 0 3 -412z"/>
<path d="M11720 6710 l0 -90 170 0 170 0 0 -460 0 -461 105 2 105 1 0 459 0
459 170 0 170 0 0 90 0 90 -445 0 -445 0 0 -90z"/>
<path d="M7970 5309 c0 -14 82 -342 201 -801 8 -33 14 -38 39 -38 16 0 31 4
34 8 5 9 114 371 179 600 23 78 44 142 47 142 3 0 53 -168 111 -373 l106 -372
33 0 34 0 32 125 c17 69 64 251 103 405 40 154 74 288 77 298 5 16 1 18 -27
15 l-33 -3 -77 -310 c-43 -170 -83 -338 -89 -373 -7 -34 -16 -64 -20 -67 -4
-2 -19 40 -33 93 -14 54 -62 225 -108 380 l-82 282 -28 0 c-26 0 -30 -5 -48
-67 -99 -332 -170 -577 -181 -623 -17 -70 -26 -80 -35 -38 -3 18 -45 189 -92
381 l-85 347 -29 0 c-16 0 -29 -5 -29 -11z"/>
<path d="M9325 5308 c-23 -60 -305 -807 -310 -820 -6 -15 -2 -18 26 -18 l34 0
43 120 44 120 200 -2 200 -3 43 -115 c40 -111 43 -115 73 -118 18 -2 32 -1 32
3 0 5 -175 472 -269 715 -47 121 -49 125 -80 128 -19 2 -33 -2 -36 -10z m211
-545 c-2 -2 -82 -2 -178 -1 l-176 3 79 215 c44 118 84 226 90 240 10 22 20 1
100 -214 49 -132 87 -241 85 -243z"/>
<path d="M9857 5314 c-3 -4 -6 -195 -7 -425 l0 -419 245 0 245 0 0 25 0 25
-210 0 -210 0 0 400 0 400 -28 0 c-16 0 -31 -3 -35 -6z"/>
<path d="M10490 4895 l0 -425 245 0 245 0 0 25 0 25 -210 0 -210 0 0 400 0
400 -35 0 -35 0 0 -425z"/>
<path d="M11130 4895 l0 -425 265 0 265 0 0 25 0 25 -230 0 -230 0 0 180 0
180 200 0 200 0 0 25 0 25 -200 0 -200 0 0 170 0 170 230 0 230 0 0 25 0 25
-265 0 -265 0 0 -425z"/>
<path d="M11760 5295 l0 -25 145 0 145 0 0 -400 0 -400 35 0 35 0 0 400 0 400
145 0 145 0 0 25 0 25 -325 0 -325 0 0 -25z"/>
</g>
</svg>
